<svg xmlns="http://www.w3.org/2000/svg" xmlns:xlink="http://www.w3.org/1999/xlink" width="300" zoomAndPan="magnify" viewBox="0 0 224.87999 225" height="300" preserveAspectRatio="xMidYMid meet" version="1.0"><defs><clipPath id="b54e2062ec"><path d="M 23 38.394531 L 202 38.394531 L 202 157.582031 L 23 157.582031 Z M 23 38.394531 " clip-rule="nonzero"/></clipPath><clipPath id="f91c0f7e75"><path d="M 22.199219 42.144531 L 22.199219 153.652344 C 22.199219 156.136719 24.210938 158.152344 26.695312 158.152344 L 197.894531 158.152344 C 200.378906 158.152344 202.390625 156.136719 202.390625 153.652344 L 202.390625 42.144531 C 202.390625 40.949219 201.917969 39.804688 201.074219 38.964844 C 200.230469 38.121094 199.085938 37.644531 197.894531 37.644531 L 26.695312 37.644531 C 24.210938 37.644531 22.199219 39.660156 22.199219 42.144531 Z M 22.199219 42.144531 " clip-rule="nonzero"/></clipPath><clipPath id="41e4512b7a"><path d="M 27.59375 38.546875 L 196.996094 38.546875 C 199.480469 38.546875 201.492188 40.558594 201.492188 43.042969 L 201.492188 152.753906 C 201.492188 155.238281 199.480469 157.25 196.996094 157.25 L 27.59375 157.25 C 25.109375 157.25 23.097656 155.238281 23.097656 152.753906 L 23.097656 43.042969 C 23.097656 40.558594 25.109375 38.546875 27.59375 38.546875 Z M 27.59375 38.546875 " clip-rule="nonzero"/></clipPath><clipPath id="368d95b470"><path d="M 41 52 L 184 52 L 184 144 L 41 144 Z M 41 52 " clip-rule="nonzero"/></clipPath><clipPath id="d9e64fa007"><path d="M 22.199219 42.144531 L 22.199219 153.652344 C 22.199219 156.136719 24.210938 158.152344 26.695312 158.152344 L 197.894531 158.152344 C 200.378906 158.152344 202.390625 156.136719 202.390625 153.652344 L 202.390625 42.144531 C 202.390625 40.949219 201.917969 39.804688 201.074219 38.964844 C 200.230469 38.121094 199.085938 37.644531 197.894531 37.644531 L 26.695312 37.644531 C 24.210938 37.644531 22.199219 39.660156 22.199219 42.144531 Z M 22.199219 42.144531 " clip-rule="nonzero"/></clipPath><clipPath id="f83b99681d"><path d="M 27.59375 38.546875 L 196.996094 38.546875 C 199.480469 38.546875 201.492188 40.558594 201.492188 43.042969 L 201.492188 152.753906 C 201.492188 155.238281 199.480469 157.25 196.996094 157.25 L 27.59375 157.25 C 25.109375 157.25 23.097656 155.238281 23.097656 152.753906 L 23.097656 43.042969 C 23.097656 40.558594 25.109375 38.546875 27.59375 38.546875 Z M 27.59375 38.546875 " clip-rule="nonzero"/></clipPath><clipPath id="7d065a4ae4"><path d="M 82 68 L 142 68 L 142 129 L 82 129 Z M 82 68 " clip-rule="nonzero"/></clipPath><clipPath id="922d53a86a"><path d="M 22.199219 42.144531 L 22.199219 153.652344 C 22.199219 156.136719 24.210938 158.152344 26.695312 158.152344 L 197.894531 158.152344 C 200.378906 158.152344 202.390625 156.136719 202.390625 153.652344 L 202.390625 42.144531 C 202.390625 40.949219 201.917969 39.804688 201.074219 38.964844 C 200.230469 38.121094 199.085938 37.644531 197.894531 37.644531 L 26.695312 37.644531 C 24.210938 37.644531 22.199219 39.660156 22.199219 42.144531 Z M 22.199219 42.144531 " clip-rule="nonzero"/></clipPath><clipPath id="2f3c570ceb"><path d="M 27.59375 38.546875 L 196.996094 38.546875 C 199.480469 38.546875 201.492188 40.558594 201.492188 43.042969 L 201.492188 152.753906 C 201.492188 155.238281 199.480469 157.25 196.996094 157.25 L 27.59375 157.25 C 25.109375 157.25 23.097656 155.238281 23.097656 152.753906 L 23.097656 43.042969 C 23.097656 40.558594 25.109375 38.546875 27.59375 38.546875 Z M 27.59375 38.546875 " clip-rule="nonzero"/></clipPath><clipPath id="f96de3205d"><path d="M 82.972656 87 L 141.800781 87 L 141.800781 111 L 82.972656 111 Z M 82.972656 87 " clip-rule="nonzero"/></clipPath><clipPath id="34bfb3c89d"><path d="M 22.199219 42.144531 L 22.199219 153.652344 C 22.199219 156.136719 24.210938 158.152344 26.695312 158.152344 L 197.894531 158.152344 C 200.378906 158.152344 202.390625 156.136719 202.390625 153.652344 L 202.390625 42.144531 C 202.390625 40.949219 201.917969 39.804688 201.074219 38.964844 C 200.230469 38.121094 199.085938 37.644531 197.894531 37.644531 L 26.695312 37.644531 C 24.210938 37.644531 22.199219 39.660156 22.199219 42.144531 Z M 22.199219 42.144531 " clip-rule="nonzero"/></clipPath><clipPath id="7424e3d75d"><path d="M 27.59375 38.546875 L 196.996094 38.546875 C 199.480469 38.546875 201.492188 40.558594 201.492188 43.042969 L 201.492188 152.753906 C 201.492188 155.238281 199.480469 157.25 196.996094 157.25 L 27.59375 157.25 C 25.109375 157.25 23.097656 155.238281 23.097656 152.753906 L 23.097656 43.042969 C 23.097656 40.558594 25.109375 38.546875 27.59375 38.546875 Z M 27.59375 38.546875 " clip-rule="nonzero"/></clipPath><clipPath id="7ecdb51a64"><path d="M 112.375 127.921875 C 128.609375 127.921875 141.769531 114.523438 141.769531 97.988281 C 141.769531 81.457031 128.609375 68.054688 112.375 68.054688 C 96.152344 68.054688 82.992188 81.457031 82.992188 97.988281 C 82.980469 114.523438 96.140625 127.921875 112.375 127.921875 Z M 112.375 127.921875 " clip-rule="nonzero"/></clipPath><clipPath id="d1b412efae"><path d="M 87 89 L 91 89 L 91 92 L 87 92 Z M 87 89 " clip-rule="nonzero"/></clipPath><clipPath id="95a8635e50"><path d="M 22.199219 42.144531 L 22.199219 153.652344 C 22.199219 156.136719 24.210938 158.152344 26.695312 158.152344 L 197.894531 158.152344 C 200.378906 158.152344 202.390625 156.136719 202.390625 153.652344 L 202.390625 42.144531 C 202.390625 40.949219 201.917969 39.804688 201.074219 38.964844 C 200.230469 38.121094 199.085938 37.644531 197.894531 37.644531 L 26.695312 37.644531 C 24.210938 37.644531 22.199219 39.660156 22.199219 42.144531 Z M 22.199219 42.144531 " clip-rule="nonzero"/></clipPath><clipPath id="bc718564c6"><path d="M 27.59375 38.546875 L 196.996094 38.546875 C 199.480469 38.546875 201.492188 40.558594 201.492188 43.042969 L 201.492188 152.753906 C 201.492188 155.238281 199.480469 157.25 196.996094 157.25 L 27.59375 157.25 C 25.109375 157.25 23.097656 155.238281 23.097656 152.753906 L 23.097656 43.042969 C 23.097656 40.558594 25.109375 38.546875 27.59375 38.546875 Z M 27.59375 38.546875 " clip-rule="nonzero"/></clipPath><clipPath id="6a3f8ec9cf"><path d="M 91 89 L 94 89 L 94 92 L 91 92 Z M 91 89 " clip-rule="nonzero"/></clipPath><clipPath id="fff1eca303"><path d="M 22.199219 42.144531 L 22.199219 153.652344 C 22.199219 156.136719 24.210938 158.152344 26.695312 158.152344 L 197.894531 158.152344 C 200.378906 158.152344 202.390625 156.136719 202.390625 153.652344 L 202.390625 42.144531 C 202.390625 40.949219 201.917969 39.804688 201.074219 38.964844 C 200.230469 38.121094 199.085938 37.644531 197.894531 37.644531 L 26.695312 37.644531 C 24.210938 37.644531 22.199219 39.660156 22.199219 42.144531 Z M 22.199219 42.144531 " clip-rule="nonzero"/></clipPath><clipPath id="6021abe9a3"><path d="M 27.59375 38.546875 L 196.996094 38.546875 C 199.480469 38.546875 201.492188 40.558594 201.492188 43.042969 L 201.492188 152.753906 C 201.492188 155.238281 199.480469 157.25 196.996094 157.25 L 27.59375 157.25 C 25.109375 157.25 23.097656 155.238281 23.097656 152.753906 L 23.097656 43.042969 C 23.097656 40.558594 25.109375 38.546875 27.59375 38.546875 Z M 27.59375 38.546875 " clip-rule="nonzero"/></clipPath><clipPath id="a07a992c0d"><path d="M 94 89 L 98 89 L 98 92 L 94 92 Z M 94 89 " clip-rule="nonzero"/></clipPath><clipPath id="9cff919539"><path d="M 22.199219 42.144531 L 22.199219 153.652344 C 22.199219 156.136719 24.210938 158.152344 26.695312 158.152344 L 197.894531 158.152344 C 200.378906 158.152344 202.390625 156.136719 202.390625 153.652344 L 202.390625 42.144531 C 202.390625 40.949219 201.917969 39.804688 201.074219 38.964844 C 200.230469 38.121094 199.085938 37.644531 197.894531 37.644531 L 26.695312 37.644531 C 24.210938 37.644531 22.199219 39.660156 22.199219 42.144531 Z M 22.199219 42.144531 " clip-rule="nonzero"/></clipPath><clipPath id="7adbde950f"><path d="M 27.59375 38.546875 L 196.996094 38.546875 C 199.480469 38.546875 201.492188 40.558594 201.492188 43.042969 L 201.492188 152.753906 C 201.492188 155.238281 199.480469 157.25 196.996094 157.25 L 27.59375 157.25 C 25.109375 157.25 23.097656 155.238281 23.097656 152.753906 L 23.097656 43.042969 C 23.097656 40.558594 25.109375 38.546875 27.59375 38.546875 Z M 27.59375 38.546875 " clip-rule="nonzero"/></clipPath><clipPath id="cd33da7bd2"><path d="M 98 89 L 101 89 L 101 92 L 98 92 Z M 98 89 " clip-rule="nonzero"/></clipPath><clipPath id="42f506f865"><path d="M 22.199219 42.144531 L 22.199219 153.652344 C 22.199219 156.136719 24.210938 158.152344 26.695312 158.152344 L 197.894531 158.152344 C 200.378906 158.152344 202.390625 156.136719 202.390625 153.652344 L 202.390625 42.144531 C 202.390625 40.949219 201.917969 39.804688 201.074219 38.964844 C 200.230469 38.121094 199.085938 37.644531 197.894531 37.644531 L 26.695312 37.644531 C 24.210938 37.644531 22.199219 39.660156 22.199219 42.144531 Z M 22.199219 42.144531 " clip-rule="nonzero"/></clipPath><clipPath id="4444ebf7d8"><path d="M 27.59375 38.546875 L 196.996094 38.546875 C 199.480469 38.546875 201.492188 40.558594 201.492188 43.042969 L 201.492188 152.753906 C 201.492188 155.238281 199.480469 157.25 196.996094 157.25 L 27.59375 157.25 C 25.109375 157.25 23.097656 155.238281 23.097656 152.753906 L 23.097656 43.042969 C 23.097656 40.558594 25.109375 38.546875 27.59375 38.546875 Z M 27.59375 38.546875 " clip-rule="nonzero"/></clipPath><clipPath id="bfe933ffcd"><path d="M 100 89 L 105 89 L 105 93 L 100 93 Z M 100 89 " clip-rule="nonzero"/></clipPath><clipPath id="3963dcffa8"><path d="M 22.199219 42.144531 L 22.199219 153.652344 C 22.199219 156.136719 24.210938 158.152344 26.695312 158.152344 L 197.894531 158.152344 C 200.378906 158.152344 202.390625 156.136719 202.390625 153.652344 L 202.390625 42.144531 C 202.390625 40.949219 201.917969 39.804688 201.074219 38.964844 C 200.230469 38.121094 199.085938 37.644531 197.894531 37.644531 L 26.695312 37.644531 C 24.210938 37.644531 22.199219 39.660156 22.199219 42.144531 Z M 22.199219 42.144531 " clip-rule="nonzero"/></clipPath><clipPath id="5364661954"><path d="M 27.59375 38.546875 L 196.996094 38.546875 C 199.480469 38.546875 201.492188 40.558594 201.492188 43.042969 L 201.492188 152.753906 C 201.492188 155.238281 199.480469 157.25 196.996094 157.25 L 27.59375 157.25 C 25.109375 157.25 23.097656 155.238281 23.097656 152.753906 L 23.097656 43.042969 C 23.097656 40.558594 25.109375 38.546875 27.59375 38.546875 Z M 27.59375 38.546875 " clip-rule="nonzero"/></clipPath><clipPath id="c20089d388"><path d="M 107 90 L 110 90 L 110 94 L 107 94 Z M 107 90 " clip-rule="nonzero"/></clipPath><clipPath id="927643f421"><path d="M 22.199219 42.144531 L 22.199219 153.652344 C 22.199219 156.136719 24.210938 158.152344 26.695312 158.152344 L 197.894531 158.152344 C 200.378906 158.152344 202.390625 156.136719 202.390625 153.652344 L 202.390625 42.144531 C 202.390625 40.949219 201.917969 39.804688 201.074219 38.964844 C 200.230469 38.121094 199.085938 37.644531 197.894531 37.644531 L 26.695312 37.644531 C 24.210938 37.644531 22.199219 39.660156 22.199219 42.144531 Z M 22.199219 42.144531 " clip-rule="nonzero"/></clipPath><clipPath id="54fda061fd"><path d="M 27.59375 38.546875 L 196.996094 38.546875 C 199.480469 38.546875 201.492188 40.558594 201.492188 43.042969 L 201.492188 152.753906 C 201.492188 155.238281 199.480469 157.25 196.996094 157.25 L 27.59375 157.25 C 25.109375 157.25 23.097656 155.238281 23.097656 152.753906 L 23.097656 43.042969 C 23.097656 40.558594 25.109375 38.546875 27.59375 38.546875 Z M 27.59375 38.546875 " clip-rule="nonzero"/></clipPath><clipPath id="0eee68dfa8"><path d="M 111 91 L 114 91 L 114 94 L 111 94 Z M 111 91 " clip-rule="nonzero"/></clipPath><clipPath id="92f542f4c3"><path d="M 22.199219 42.144531 L 22.199219 153.652344 C 22.199219 156.136719 24.210938 158.152344 26.695312 158.152344 L 197.894531 158.152344 C 200.378906 158.152344 202.390625 156.136719 202.390625 153.652344 L 202.390625 42.144531 C 202.390625 40.949219 201.917969 39.804688 201.074219 38.964844 C 200.230469 38.121094 199.085938 37.644531 197.894531 37.644531 L 26.695312 37.644531 C 24.210938 37.644531 22.199219 39.660156 22.199219 42.144531 Z M 22.199219 42.144531 " clip-rule="nonzero"/></clipPath><clipPath id="3d8f393a29"><path d="M 27.59375 38.546875 L 196.996094 38.546875 C 199.480469 38.546875 201.492188 40.558594 201.492188 43.042969 L 201.492188 152.753906 C 201.492188 155.238281 199.480469 157.25 196.996094 157.25 L 27.59375 157.25 C 25.109375 157.25 23.097656 155.238281 23.097656 152.753906 L 23.097656 43.042969 C 23.097656 40.558594 25.109375 38.546875 27.59375 38.546875 Z M 27.59375 38.546875 " clip-rule="nonzero"/></clipPath><clipPath id="861ad31097"><path d="M 114 91 L 117 91 L 117 95 L 114 95 Z M 114 91 " clip-rule="nonzero"/></clipPath><clipPath id="2f377bc67a"><path d="M 22.199219 42.144531 L 22.199219 153.652344 C 22.199219 156.136719 24.210938 158.152344 26.695312 158.152344 L 197.894531 158.152344 C 200.378906 158.152344 202.390625 156.136719 202.390625 153.652344 L 202.390625 42.144531 C 202.390625 40.949219 201.917969 39.804688 201.074219 38.964844 C 200.230469 38.121094 199.085938 37.644531 197.894531 37.644531 L 26.695312 37.644531 C 24.210938 37.644531 22.199219 39.660156 22.199219 42.144531 Z M 22.199219 42.144531 " clip-rule="nonzero"/></clipPath><clipPath id="0a5a768a51"><path d="M 27.59375 38.546875 L 196.996094 38.546875 C 199.480469 38.546875 201.492188 40.558594 201.492188 43.042969 L 201.492188 152.753906 C 201.492188 155.238281 199.480469 157.25 196.996094 157.25 L 27.59375 157.25 C 25.109375 157.25 23.097656 155.238281 23.097656 152.753906 L 23.097656 43.042969 C 23.097656 40.558594 25.109375 38.546875 27.59375 38.546875 Z M 27.59375 38.546875 " clip-rule="nonzero"/></clipPath><clipPath id="b909fc329a"><path d="M 117 92 L 121 92 L 121 96 L 117 96 Z M 117 92 " clip-rule="nonzero"/></clipPath><clipPath id="62854fa74a"><path d="M 22.199219 42.144531 L 22.199219 153.652344 C 22.199219 156.136719 24.210938 158.152344 26.695312 158.152344 L 197.894531 158.152344 C 200.378906 158.152344 202.390625 156.136719 202.390625 153.652344 L 202.390625 42.144531 C 202.390625 40.949219 201.917969 39.804688 201.074219 38.964844 C 200.230469 38.121094 199.085938 37.644531 197.894531 37.644531 L 26.695312 37.644531 C 24.210938 37.644531 22.199219 39.660156 22.199219 42.144531 Z M 22.199219 42.144531 " clip-rule="nonzero"/></clipPath><clipPath id="5ea438c464"><path d="M 27.59375 38.546875 L 196.996094 38.546875 C 199.480469 38.546875 201.492188 40.558594 201.492188 43.042969 L 201.492188 152.753906 C 201.492188 155.238281 199.480469 157.25 196.996094 157.25 L 27.59375 157.25 C 25.109375 157.25 23.097656 155.238281 23.097656 152.753906 L 23.097656 43.042969 C 23.097656 40.558594 25.109375 38.546875 27.59375 38.546875 Z M 27.59375 38.546875 " clip-rule="nonzero"/></clipPath><clipPath id="2e96e1ece8"><path d="M 120 94 L 124 94 L 124 97 L 120 97 Z M 120 94 " clip-rule="nonzero"/></clipPath><clipPath id="b726f69900"><path d="M 22.199219 42.144531 L 22.199219 153.652344 C 22.199219 156.136719 24.210938 158.152344 26.695312 158.152344 L 197.894531 158.152344 C 200.378906 158.152344 202.390625 156.136719 202.390625 153.652344 L 202.390625 42.144531 C 202.390625 40.949219 201.917969 39.804688 201.074219 38.964844 C 200.230469 38.121094 199.085938 37.644531 197.894531 37.644531 L 26.695312 37.644531 C 24.210938 37.644531 22.199219 39.660156 22.199219 42.144531 Z M 22.199219 42.144531 " clip-rule="nonzero"/></clipPath><clipPath id="845e129047"><path d="M 27.59375 38.546875 L 196.996094 38.546875 C 199.480469 38.546875 201.492188 40.558594 201.492188 43.042969 L 201.492188 152.753906 C 201.492188 155.238281 199.480469 157.25 196.996094 157.25 L 27.59375 157.25 C 25.109375 157.25 23.097656 155.238281 23.097656 152.753906 L 23.097656 43.042969 C 23.097656 40.558594 25.109375 38.546875 27.59375 38.546875 Z M 27.59375 38.546875 " clip-rule="nonzero"/></clipPath><clipPath id="ccb2f9b007"><path d="M 123 95 L 127 95 L 127 99 L 123 99 Z M 123 95 " clip-rule="nonzero"/></clipPath><clipPath id="78b2e68657"><path d="M 22.199219 42.144531 L 22.199219 153.652344 C 22.199219 156.136719 24.210938 158.152344 26.695312 158.152344 L 197.894531 158.152344 C 200.378906 158.152344 202.390625 156.136719 202.390625 153.652344 L 202.390625 42.144531 C 202.390625 40.949219 201.917969 39.804688 201.074219 38.964844 C 200.230469 38.121094 199.085938 37.644531 197.894531 37.644531 L 26.695312 37.644531 C 24.210938 37.644531 22.199219 39.660156 22.199219 42.144531 Z M 22.199219 42.144531 " clip-rule="nonzero"/></clipPath><clipPath id="be68c77785"><path d="M 27.59375 38.546875 L 196.996094 38.546875 C 199.480469 38.546875 201.492188 40.558594 201.492188 43.042969 L 201.492188 152.753906 C 201.492188 155.238281 199.480469 157.25 196.996094 157.25 L 27.59375 157.25 C 25.109375 157.25 23.097656 155.238281 23.097656 152.753906 L 23.097656 43.042969 C 23.097656 40.558594 25.109375 38.546875 27.59375 38.546875 Z M 27.59375 38.546875 " clip-rule="nonzero"/></clipPath><clipPath id="b2254e6a27"><path d="M 126 96 L 130 96 L 130 100 L 126 100 Z M 126 96 " clip-rule="nonzero"/></clipPath><clipPath id="94ec5bfa4c"><path d="M 22.199219 42.144531 L 22.199219 153.652344 C 22.199219 156.136719 24.210938 158.152344 26.695312 158.152344 L 197.894531 158.152344 C 200.378906 158.152344 202.390625 156.136719 202.390625 153.652344 L 202.390625 42.144531 C 202.390625 40.949219 201.917969 39.804688 201.074219 38.964844 C 200.230469 38.121094 199.085938 37.644531 197.894531 37.644531 L 26.695312 37.644531 C 24.210938 37.644531 22.199219 39.660156 22.199219 42.144531 Z M 22.199219 42.144531 " clip-rule="nonzero"/></clipPath><clipPath id="9cd47a3bd1"><path d="M 27.59375 38.546875 L 196.996094 38.546875 C 199.480469 38.546875 201.492188 40.558594 201.492188 43.042969 L 201.492188 152.753906 C 201.492188 155.238281 199.480469 157.25 196.996094 157.25 L 27.59375 157.25 C 25.109375 157.25 23.097656 155.238281 23.097656 152.753906 L 23.097656 43.042969 C 23.097656 40.558594 25.109375 38.546875 27.59375 38.546875 Z M 27.59375 38.546875 " clip-rule="nonzero"/></clipPath><clipPath id="9f6eadfb0d"><path d="M 129 97 L 132 97 L 132 101 L 129 101 Z M 129 97 " clip-rule="nonzero"/></clipPath><clipPath id="bcf273004f"><path d="M 22.199219 42.144531 L 22.199219 153.652344 C 22.199219 156.136719 24.210938 158.152344 26.695312 158.152344 L 197.894531 158.152344 C 200.378906 158.152344 202.390625 156.136719 202.390625 153.652344 L 202.390625 42.144531 C 202.390625 40.949219 201.917969 39.804688 201.074219 38.964844 C 200.230469 38.121094 199.085938 37.644531 197.894531 37.644531 L 26.695312 37.644531 C 24.210938 37.644531 22.199219 39.660156 22.199219 42.144531 Z M 22.199219 42.144531 " clip-rule="nonzero"/></clipPath><clipPath id="a628d51f5b"><path d="M 27.59375 38.546875 L 196.996094 38.546875 C 199.480469 38.546875 201.492188 40.558594 201.492188 43.042969 L 201.492188 152.753906 C 201.492188 155.238281 199.480469 157.25 196.996094 157.25 L 27.59375 157.25 C 25.109375 157.25 23.097656 155.238281 23.097656 152.753906 L 23.097656 43.042969 C 23.097656 40.558594 25.109375 38.546875 27.59375 38.546875 Z M 27.59375 38.546875 " clip-rule="nonzero"/></clipPath><clipPath id="d0ff8f046e"><path d="M 131 99 L 135 99 L 135 102 L 131 102 Z M 131 99 " clip-rule="nonzero"/></clipPath><clipPath id="a8f9e9901c"><path d="M 22.199219 42.144531 L 22.199219 153.652344 C 22.199219 156.136719 24.210938 158.152344 26.695312 158.152344 L 197.894531 158.152344 C 200.378906 158.152344 202.390625 156.136719 202.390625 153.652344 L 202.390625 42.144531 C 202.390625 40.949219 201.917969 39.804688 201.074219 38.964844 C 200.230469 38.121094 199.085938 37.644531 197.894531 37.644531 L 26.695312 37.644531 C 24.210938 37.644531 22.199219 39.660156 22.199219 42.144531 Z M 22.199219 42.144531 " clip-rule="nonzero"/></clipPath><clipPath id="864e012e62"><path d="M 27.59375 38.546875 L 196.996094 38.546875 C 199.480469 38.546875 201.492188 40.558594 201.492188 43.042969 L 201.492188 152.753906 C 201.492188 155.238281 199.480469 157.25 196.996094 157.25 L 27.59375 157.25 C 25.109375 157.25 23.097656 155.238281 23.097656 152.753906 L 23.097656 43.042969 C 23.097656 40.558594 25.109375 38.546875 27.59375 38.546875 Z M 27.59375 38.546875 " clip-rule="nonzero"/></clipPath><clipPath id="5520a29983"><path d="M 134 100 L 138 100 L 138 104 L 134 104 Z M 134 100 " clip-rule="nonzero"/></clipPath><clipPath id="8834768453"><path d="M 22.199219 42.144531 L 22.199219 153.652344 C 22.199219 156.136719 24.210938 158.152344 26.695312 158.152344 L 197.894531 158.152344 C 200.378906 158.152344 202.390625 156.136719 202.390625 153.652344 L 202.390625 42.144531 C 202.390625 40.949219 201.917969 39.804688 201.074219 38.964844 C 200.230469 38.121094 199.085938 37.644531 197.894531 37.644531 L 26.695312 37.644531 C 24.210938 37.644531 22.199219 39.660156 22.199219 42.144531 Z M 22.199219 42.144531 " clip-rule="nonzero"/></clipPath><clipPath id="2bc8643162"><path d="M 27.59375 38.546875 L 196.996094 38.546875 C 199.480469 38.546875 201.492188 40.558594 201.492188 43.042969 L 201.492188 152.753906 C 201.492188 155.238281 199.480469 157.25 196.996094 157.25 L 27.59375 157.25 C 25.109375 157.25 23.097656 155.238281 23.097656 152.753906 L 23.097656 43.042969 C 23.097656 40.558594 25.109375 38.546875 27.59375 38.546875 Z M 27.59375 38.546875 " clip-rule="nonzero"/></clipPath><clipPath id="37b9da6a39"><path d="M 117 115 L 120 115 L 120 118 L 117 118 Z M 117 115 " clip-rule="nonzero"/></clipPath><clipPath id="e11c8a9ef4"><path d="M 22.199219 42.144531 L 22.199219 153.652344 C 22.199219 156.136719 24.210938 158.152344 26.695312 158.152344 L 197.894531 158.152344 C 200.378906 158.152344 202.390625 156.136719 202.390625 153.652344 L 202.390625 42.144531 C 202.390625 40.949219 201.917969 39.804688 201.074219 38.964844 C 200.230469 38.121094 199.085938 37.644531 197.894531 37.644531 L 26.695312 37.644531 C 24.210938 37.644531 22.199219 39.660156 22.199219 42.144531 Z M 22.199219 42.144531 " clip-rule="nonzero"/></clipPath><clipPath id="bca72d7161"><path d="M 27.59375 38.546875 L 196.996094 38.546875 C 199.480469 38.546875 201.492188 40.558594 201.492188 43.042969 L 201.492188 152.753906 C 201.492188 155.238281 199.480469 157.25 196.996094 157.25 L 27.59375 157.25 C 25.109375 157.25 23.097656 155.238281 23.097656 152.753906 L 23.097656 43.042969 C 23.097656 40.558594 25.109375 38.546875 27.59375 38.546875 Z M 27.59375 38.546875 " clip-rule="nonzero"/></clipPath><clipPath id="8f73ef307e"><path d="M 124 120 L 126 120 L 126 122 L 124 122 Z M 124 120 " clip-rule="nonzero"/></clipPath><clipPath id="7f6f87b85c"><path d="M 22.199219 42.144531 L 22.199219 153.652344 C 22.199219 156.136719 24.210938 158.152344 26.695312 158.152344 L 197.894531 158.152344 C 200.378906 158.152344 202.390625 156.136719 202.390625 153.652344 L 202.390625 42.144531 C 202.390625 40.949219 201.917969 39.804688 201.074219 38.964844 C 200.230469 38.121094 199.085938 37.644531 197.894531 37.644531 L 26.695312 37.644531 C 24.210938 37.644531 22.199219 39.660156 22.199219 42.144531 Z M 22.199219 42.144531 " clip-rule="nonzero"/></clipPath><clipPath id="d68416f0b0"><path d="M 27.59375 38.546875 L 196.996094 38.546875 C 199.480469 38.546875 201.492188 40.558594 201.492188 43.042969 L 201.492188 152.753906 C 201.492188 155.238281 199.480469 157.25 196.996094 157.25 L 27.59375 157.25 C 25.109375 157.25 23.097656 155.238281 23.097656 152.753906 L 23.097656 43.042969 C 23.097656 40.558594 25.109375 38.546875 27.59375 38.546875 Z M 27.59375 38.546875 " clip-rule="nonzero"/></clipPath><clipPath id="f79e2ac565"><path d="M 117 88 L 120 88 L 120 91 L 117 91 Z M 117 88 " clip-rule="nonzero"/></clipPath><clipPath id="8b28b5796f"><path d="M 22.199219 42.144531 L 22.199219 153.652344 C 22.199219 156.136719 24.210938 158.152344 26.695312 158.152344 L 197.894531 158.152344 C 200.378906 158.152344 202.390625 156.136719 202.390625 153.652344 L 202.390625 42.144531 C 202.390625 40.949219 201.917969 39.804688 201.074219 38.964844 C 200.230469 38.121094 199.085938 37.644531 197.894531 37.644531 L 26.695312 37.644531 C 24.210938 37.644531 22.199219 39.660156 22.199219 42.144531 Z M 22.199219 42.144531 " clip-rule="nonzero"/></clipPath><clipPath id="7ff8f023db"><path d="M 27.59375 38.546875 L 196.996094 38.546875 C 199.480469 38.546875 201.492188 40.558594 201.492188 43.042969 L 201.492188 152.753906 C 201.492188 155.238281 199.480469 157.25 196.996094 157.25 L 27.59375 157.25 C 25.109375 157.25 23.097656 155.238281 23.097656 152.753906 L 23.097656 43.042969 C 23.097656 40.558594 25.109375 38.546875 27.59375 38.546875 Z M 27.59375 38.546875 " clip-rule="nonzero"/></clipPath><clipPath id="e858756471"><path d="M 130 108 L 134 108 L 134 111 L 130 111 Z M 130 108 " clip-rule="nonzero"/></clipPath><clipPath id="8d3cdf9b05"><path d="M 22.199219 42.144531 L 22.199219 153.652344 C 22.199219 156.136719 24.210938 158.152344 26.695312 158.152344 L 197.894531 158.152344 C 200.378906 158.152344 202.390625 156.136719 202.390625 153.652344 L 202.390625 42.144531 C 202.390625 40.949219 201.917969 39.804688 201.074219 38.964844 C 200.230469 38.121094 199.085938 37.644531 197.894531 37.644531 L 26.695312 37.644531 C 24.210938 37.644531 22.199219 39.660156 22.199219 42.144531 Z M 22.199219 42.144531 " clip-rule="nonzero"/></clipPath><clipPath id="5fa51a6d2e"><path d="M 27.59375 38.546875 L 196.996094 38.546875 C 199.480469 38.546875 201.492188 40.558594 201.492188 43.042969 L 201.492188 152.753906 C 201.492188 155.238281 199.480469 157.25 196.996094 157.25 L 27.59375 157.25 C 25.109375 157.25 23.097656 155.238281 23.097656 152.753906 L 23.097656 43.042969 C 23.097656 40.558594 25.109375 38.546875 27.59375 38.546875 Z M 27.59375 38.546875 " clip-rule="nonzero"/></clipPath><clipPath id="62940c0b19"><path d="M 117 98 L 120 98 L 120 100 L 117 100 Z M 117 98 " clip-rule="nonzero"/></clipPath><clipPath id="5d8af92cdf"><path d="M 22.199219 42.144531 L 22.199219 153.652344 C 22.199219 156.136719 24.210938 158.152344 26.695312 158.152344 L 197.894531 158.152344 C 200.378906 158.152344 202.390625 156.136719 202.390625 153.652344 L 202.390625 42.144531 C 202.390625 40.949219 201.917969 39.804688 201.074219 38.964844 C 200.230469 38.121094 199.085938 37.644531 197.894531 37.644531 L 26.695312 37.644531 C 24.210938 37.644531 22.199219 39.660156 22.199219 42.144531 Z M 22.199219 42.144531 " clip-rule="nonzero"/></clipPath><clipPath id="df49c8e5cf"><path d="M 27.59375 38.546875 L 196.996094 38.546875 C 199.480469 38.546875 201.492188 40.558594 201.492188 43.042969 L 201.492188 152.753906 C 201.492188 155.238281 199.480469 157.25 196.996094 157.25 L 27.59375 157.25 C 25.109375 157.25 23.097656 155.238281 23.097656 152.753906 L 23.097656 43.042969 C 23.097656 40.558594 25.109375 38.546875 27.59375 38.546875 Z M 27.59375 38.546875 " clip-rule="nonzero"/></clipPath><clipPath id="90d5de738e"><path d="M 89 93 L 93 93 L 93 96 L 89 96 Z M 89 93 " clip-rule="nonzero"/></clipPath><clipPath id="cd730127a4"><path d="M 22.199219 42.144531 L 22.199219 153.652344 C 22.199219 156.136719 24.210938 158.152344 26.695312 158.152344 L 197.894531 158.152344 C 200.378906 158.152344 202.390625 156.136719 202.390625 153.652344 L 202.390625 42.144531 C 202.390625 40.949219 201.917969 39.804688 201.074219 38.964844 C 200.230469 38.121094 199.085938 37.644531 197.894531 37.644531 L 26.695312 37.644531 C 24.210938 37.644531 22.199219 39.660156 22.199219 42.144531 Z M 22.199219 42.144531 " clip-rule="nonzero"/></clipPath><clipPath id="105559a1e4"><path d="M 27.59375 38.546875 L 196.996094 38.546875 C 199.480469 38.546875 201.492188 40.558594 201.492188 43.042969 L 201.492188 152.753906 C 201.492188 155.238281 199.480469 157.25 196.996094 157.25 L 27.59375 157.25 C 25.109375 157.25 23.097656 155.238281 23.097656 152.753906 L 23.097656 43.042969 C 23.097656 40.558594 25.109375 38.546875 27.59375 38.546875 Z M 27.59375 38.546875 " clip-rule="nonzero"/></clipPath><clipPath id="878362cd68"><path d="M 100 100 L 103 100 L 103 103 L 100 103 Z M 100 100 " clip-rule="nonzero"/></clipPath><clipPath id="4ae5ddbaa1"><path d="M 22.199219 42.144531 L 22.199219 153.652344 C 22.199219 156.136719 24.210938 158.152344 26.695312 158.152344 L 197.894531 158.152344 C 200.378906 158.152344 202.390625 156.136719 202.390625 153.652344 L 202.390625 42.144531 C 202.390625 40.949219 201.917969 39.804688 201.074219 38.964844 C 200.230469 38.121094 199.085938 37.644531 197.894531 37.644531 L 26.695312 37.644531 C 24.210938 37.644531 22.199219 39.660156 22.199219 42.144531 Z M 22.199219 42.144531 " clip-rule="nonzero"/></clipPath><clipPath id="de8fbd9eaf"><path d="M 27.59375 38.546875 L 196.996094 38.546875 C 199.480469 38.546875 201.492188 40.558594 201.492188 43.042969 L 201.492188 152.753906 C 201.492188 155.238281 199.480469 157.25 196.996094 157.25 L 27.59375 157.25 C 25.109375 157.25 23.097656 155.238281 23.097656 152.753906 L 23.097656 43.042969 C 23.097656 40.558594 25.109375 38.546875 27.59375 38.546875 Z M 27.59375 38.546875 " clip-rule="nonzero"/></clipPath><clipPath id="b463cce50f"><path d="M 113 105 L 116 105 L 116 108 L 113 108 Z M 113 105 " clip-rule="nonzero"/></clipPath><clipPath id="8839a67a48"><path d="M 22.199219 42.144531 L 22.199219 153.652344 C 22.199219 156.136719 24.210938 158.152344 26.695312 158.152344 L 197.894531 158.152344 C 200.378906 158.152344 202.390625 156.136719 202.390625 153.652344 L 202.390625 42.144531 C 202.390625 40.949219 201.917969 39.804688 201.074219 38.964844 C 200.230469 38.121094 199.085938 37.644531 197.894531 37.644531 L 26.695312 37.644531 C 24.210938 37.644531 22.199219 39.660156 22.199219 42.144531 Z M 22.199219 42.144531 " clip-rule="nonzero"/></clipPath><clipPath id="dec6124752"><path d="M 27.59375 38.546875 L 196.996094 38.546875 C 199.480469 38.546875 201.492188 40.558594 201.492188 43.042969 L 201.492188 152.753906 C 201.492188 155.238281 199.480469 157.25 196.996094 157.25 L 27.59375 157.25 C 25.109375 157.25 23.097656 155.238281 23.097656 152.753906 L 23.097656 43.042969 C 23.097656 40.558594 25.109375 38.546875 27.59375 38.546875 Z M 27.59375 38.546875 " clip-rule="nonzero"/></clipPath><clipPath id="0977676263"><path d="M 111 112 L 114 112 L 114 115 L 111 115 Z M 111 112 " clip-rule="nonzero"/></clipPath><clipPath id="8abc3f49ca"><path d="M 22.199219 42.144531 L 22.199219 153.652344 C 22.199219 156.136719 24.210938 158.152344 26.695312 158.152344 L 197.894531 158.152344 C 200.378906 158.152344 202.390625 156.136719 202.390625 153.652344 L 202.390625 42.144531 C 202.390625 40.949219 201.917969 39.804688 201.074219 38.964844 C 200.230469 38.121094 199.085938 37.644531 197.894531 37.644531 L 26.695312 37.644531 C 24.210938 37.644531 22.199219 39.660156 22.199219 42.144531 Z M 22.199219 42.144531 " clip-rule="nonzero"/></clipPath><clipPath id="84580e2b71"><path d="M 27.59375 38.546875 L 196.996094 38.546875 C 199.480469 38.546875 201.492188 40.558594 201.492188 43.042969 L 201.492188 152.753906 C 201.492188 155.238281 199.480469 157.25 196.996094 157.25 L 27.59375 157.25 C 25.109375 157.25 23.097656 155.238281 23.097656 152.753906 L 23.097656 43.042969 C 23.097656 40.558594 25.109375 38.546875 27.59375 38.546875 Z M 27.59375 38.546875 " clip-rule="nonzero"/></clipPath><clipPath id="74bb6638f9"><path d="M 119 119 L 122 119 L 122 122 L 119 122 Z M 119 119 " clip-rule="nonzero"/></clipPath><clipPath id="da7674ac49"><path d="M 22.199219 42.144531 L 22.199219 153.652344 C 22.199219 156.136719 24.210938 158.152344 26.695312 158.152344 L 197.894531 158.152344 C 200.378906 158.152344 202.390625 156.136719 202.390625 153.652344 L 202.390625 42.144531 C 202.390625 40.949219 201.917969 39.804688 201.074219 38.964844 C 200.230469 38.121094 199.085938 37.644531 197.894531 37.644531 L 26.695312 37.644531 C 24.210938 37.644531 22.199219 39.660156 22.199219 42.144531 Z M 22.199219 42.144531 " clip-rule="nonzero"/></clipPath><clipPath id="2c7dbaf381"><path d="M 27.59375 38.546875 L 196.996094 38.546875 C 199.480469 38.546875 201.492188 40.558594 201.492188 43.042969 L 201.492188 152.753906 C 201.492188 155.238281 199.480469 157.25 196.996094 157.25 L 27.59375 157.25 C 25.109375 157.25 23.097656 155.238281 23.097656 152.753906 L 23.097656 43.042969 C 23.097656 40.558594 25.109375 38.546875 27.59375 38.546875 Z M 27.59375 38.546875 " clip-rule="nonzero"/></clipPath><clipPath id="41d961bea9"><path d="M 111 123 L 113 123 L 113 125 L 111 125 Z M 111 123 " clip-rule="nonzero"/></clipPath><clipPath id="63fd7df3d9"><path d="M 22.199219 42.144531 L 22.199219 153.652344 C 22.199219 156.136719 24.210938 158.152344 26.695312 158.152344 L 197.894531 158.152344 C 200.378906 158.152344 202.390625 156.136719 202.390625 153.652344 L 202.390625 42.144531 C 202.390625 40.949219 201.917969 39.804688 201.074219 38.964844 C 200.230469 38.121094 199.085938 37.644531 197.894531 37.644531 L 26.695312 37.644531 C 24.210938 37.644531 22.199219 39.660156 22.199219 42.144531 Z M 22.199219 42.144531 " clip-rule="nonzero"/></clipPath><clipPath id="0de3379158"><path d="M 27.59375 38.546875 L 196.996094 38.546875 C 199.480469 38.546875 201.492188 40.558594 201.492188 43.042969 L 201.492188 152.753906 C 201.492188 155.238281 199.480469 157.25 196.996094 157.25 L 27.59375 157.25 C 25.109375 157.25 23.097656 155.238281 23.097656 152.753906 L 23.097656 43.042969 C 23.097656 40.558594 25.109375 38.546875 27.59375 38.546875 Z M 27.59375 38.546875 " clip-rule="nonzero"/></clipPath><clipPath id="635749cd2b"><path d="M 91 106 L 94 106 L 94 110 L 91 110 Z M 91 106 " clip-rule="nonzero"/></clipPath><clipPath id="10cf22e04f"><path d="M 22.199219 42.144531 L 22.199219 153.652344 C 22.199219 156.136719 24.210938 158.152344 26.695312 158.152344 L 197.894531 158.152344 C 200.378906 158.152344 202.390625 156.136719 202.390625 153.652344 L 202.390625 42.144531 C 202.390625 40.949219 201.917969 39.804688 201.074219 38.964844 C 200.230469 38.121094 199.085938 37.644531 197.894531 37.644531 L 26.695312 37.644531 C 24.210938 37.644531 22.199219 39.660156 22.199219 42.144531 Z M 22.199219 42.144531 " clip-rule="nonzero"/></clipPath><clipPath id="421c342c39"><path d="M 27.59375 38.546875 L 196.996094 38.546875 C 199.480469 38.546875 201.492188 40.558594 201.492188 43.042969 L 201.492188 152.753906 C 201.492188 155.238281 199.480469 157.25 196.996094 157.25 L 27.59375 157.25 C 25.109375 157.25 23.097656 155.238281 23.097656 152.753906 L 23.097656 43.042969 C 23.097656 40.558594 25.109375 38.546875 27.59375 38.546875 Z M 27.59375 38.546875 " clip-rule="nonzero"/></clipPath><clipPath id="62d71a289f"><path d="M 97 111 L 100 111 L 100 113 L 97 113 Z M 97 111 " clip-rule="nonzero"/></clipPath><clipPath id="b0c5dbf7ac"><path d="M 22.199219 42.144531 L 22.199219 153.652344 C 22.199219 156.136719 24.210938 158.152344 26.695312 158.152344 L 197.894531 158.152344 C 200.378906 158.152344 202.390625 156.136719 202.390625 153.652344 L 202.390625 42.144531 C 202.390625 40.949219 201.917969 39.804688 201.074219 38.964844 C 200.230469 38.121094 199.085938 37.644531 197.894531 37.644531 L 26.695312 37.644531 C 24.210938 37.644531 22.199219 39.660156 22.199219 42.144531 Z M 22.199219 42.144531 " clip-rule="nonzero"/></clipPath><clipPath id="1e222ba630"><path d="M 27.59375 38.546875 L 196.996094 38.546875 C 199.480469 38.546875 201.492188 40.558594 201.492188 43.042969 L 201.492188 152.753906 C 201.492188 155.238281 199.480469 157.25 196.996094 157.25 L 27.59375 157.25 C 25.109375 157.25 23.097656 155.238281 23.097656 152.753906 L 23.097656 43.042969 C 23.097656 40.558594 25.109375 38.546875 27.59375 38.546875 Z M 27.59375 38.546875 " clip-rule="nonzero"/></clipPath><clipPath id="c8a186e534"><path d="M 124 116 L 127 116 L 127 119 L 124 119 Z M 124 116 " clip-rule="nonzero"/></clipPath><clipPath id="34048d2065"><path d="M 22.199219 42.144531 L 22.199219 153.652344 C 22.199219 156.136719 24.210938 158.152344 26.695312 158.152344 L 197.894531 158.152344 C 200.378906 158.152344 202.390625 156.136719 202.390625 153.652344 L 202.390625 42.144531 C 202.390625 40.949219 201.917969 39.804688 201.074219 38.964844 C 200.230469 38.121094 199.085938 37.644531 197.894531 37.644531 L 26.695312 37.644531 C 24.210938 37.644531 22.199219 39.660156 22.199219 42.144531 Z M 22.199219 42.144531 " clip-rule="nonzero"/></clipPath><clipPath id="b418160582"><path d="M 27.59375 38.546875 L 196.996094 38.546875 C 199.480469 38.546875 201.492188 40.558594 201.492188 43.042969 L 201.492188 152.753906 C 201.492188 155.238281 199.480469 157.25 196.996094 157.25 L 27.59375 157.25 C 25.109375 157.25 23.097656 155.238281 23.097656 152.753906 L 23.097656 43.042969 C 23.097656 40.558594 25.109375 38.546875 27.59375 38.546875 Z M 27.59375 38.546875 " clip-rule="nonzero"/></clipPath><clipPath id="b4c80e628e"><path d="M 127 115 L 130 115 L 130 118 L 127 118 Z M 127 115 " clip-rule="nonzero"/></clipPath><clipPath id="b5b4786ab1"><path d="M 22.199219 42.144531 L 22.199219 153.652344 C 22.199219 156.136719 24.210938 158.152344 26.695312 158.152344 L 197.894531 158.152344 C 200.378906 158.152344 202.390625 156.136719 202.390625 153.652344 L 202.390625 42.144531 C 202.390625 40.949219 201.917969 39.804688 201.074219 38.964844 C 200.230469 38.121094 199.085938 37.644531 197.894531 37.644531 L 26.695312 37.644531 C 24.210938 37.644531 22.199219 39.660156 22.199219 42.144531 Z M 22.199219 42.144531 " clip-rule="nonzero"/></clipPath><clipPath id="6c23cbc049"><path d="M 27.59375 38.546875 L 196.996094 38.546875 C 199.480469 38.546875 201.492188 40.558594 201.492188 43.042969 L 201.492188 152.753906 C 201.492188 155.238281 199.480469 157.25 196.996094 157.25 L 27.59375 157.25 C 25.109375 157.25 23.097656 155.238281 23.097656 152.753906 L 23.097656 43.042969 C 23.097656 40.558594 25.109375 38.546875 27.59375 38.546875 Z M 27.59375 38.546875 " clip-rule="nonzero"/></clipPath><clipPath id="85098277e3"><path d="M 130 113 L 132 113 L 132 116 L 130 116 Z M 130 113 " clip-rule="nonzero"/></clipPath><clipPath id="8d9da70e4d"><path d="M 22.199219 42.144531 L 22.199219 153.652344 C 22.199219 156.136719 24.210938 158.152344 26.695312 158.152344 L 197.894531 158.152344 C 200.378906 158.152344 202.390625 156.136719 202.390625 153.652344 L 202.390625 42.144531 C 202.390625 40.949219 201.917969 39.804688 201.074219 38.964844 C 200.230469 38.121094 199.085938 37.644531 197.894531 37.644531 L 26.695312 37.644531 C 24.210938 37.644531 22.199219 39.660156 22.199219 42.144531 Z M 22.199219 42.144531 " clip-rule="nonzero"/></clipPath><clipPath id="e9ea645397"><path d="M 27.59375 38.546875 L 196.996094 38.546875 C 199.480469 38.546875 201.492188 40.558594 201.492188 43.042969 L 201.492188 152.753906 C 201.492188 155.238281 199.480469 157.25 196.996094 157.25 L 27.59375 157.25 C 25.109375 157.25 23.097656 155.238281 23.097656 152.753906 L 23.097656 43.042969 C 23.097656 40.558594 25.109375 38.546875 27.59375 38.546875 Z M 27.59375 38.546875 " clip-rule="nonzero"/></clipPath><clipPath id="fbcaaf5fc9"><path d="M 132 111 L 134 111 L 134 113 L 132 113 Z M 132 111 " clip-rule="nonzero"/></clipPath><clipPath id="636f850a2d"><path d="M 22.199219 42.144531 L 22.199219 153.652344 C 22.199219 156.136719 24.210938 158.152344 26.695312 158.152344 L 197.894531 158.152344 C 200.378906 158.152344 202.390625 156.136719 202.390625 153.652344 L 202.390625 42.144531 C 202.390625 40.949219 201.917969 39.804688 201.074219 38.964844 C 200.230469 38.121094 199.085938 37.644531 197.894531 37.644531 L 26.695312 37.644531 C 24.210938 37.644531 22.199219 39.660156 22.199219 42.144531 Z M 22.199219 42.144531 " clip-rule="nonzero"/></clipPath><clipPath id="2dc039deee"><path d="M 27.59375 38.546875 L 196.996094 38.546875 C 199.480469 38.546875 201.492188 40.558594 201.492188 43.042969 L 201.492188 152.753906 C 201.492188 155.238281 199.480469 157.25 196.996094 157.25 L 27.59375 157.25 C 25.109375 157.25 23.097656 155.238281 23.097656 152.753906 L 23.097656 43.042969 C 23.097656 40.558594 25.109375 38.546875 27.59375 38.546875 Z M 27.59375 38.546875 " clip-rule="nonzero"/></clipPath><clipPath id="12cfcf7b8b"><path d="M 97 116 L 100 116 L 100 119 L 97 119 Z M 97 116 " clip-rule="nonzero"/></clipPath><clipPath id="4a4c166f29"><path d="M 22.199219 42.144531 L 22.199219 153.652344 C 22.199219 156.136719 24.210938 158.152344 26.695312 158.152344 L 197.894531 158.152344 C 200.378906 158.152344 202.390625 156.136719 202.390625 153.652344 L 202.390625 42.144531 C 202.390625 40.949219 201.917969 39.804688 201.074219 38.964844 C 200.230469 38.121094 199.085938 37.644531 197.894531 37.644531 L 26.695312 37.644531 C 24.210938 37.644531 22.199219 39.660156 22.199219 42.144531 Z M 22.199219 42.144531 " clip-rule="nonzero"/></clipPath><clipPath id="51dc265b32"><path d="M 27.59375 38.546875 L 196.996094 38.546875 C 199.480469 38.546875 201.492188 40.558594 201.492188 43.042969 L 201.492188 152.753906 C 201.492188 155.238281 199.480469 157.25 196.996094 157.25 L 27.59375 157.25 C 25.109375 157.25 23.097656 155.238281 23.097656 152.753906 L 23.097656 43.042969 C 23.097656 40.558594 25.109375 38.546875 27.59375 38.546875 Z M 27.59375 38.546875 " clip-rule="nonzero"/></clipPath><clipPath id="b2913af3d7"><path d="M 87 108 L 90 108 L 90 111 L 87 111 Z M 87 108 " clip-rule="nonzero"/></clipPath><clipPath id="b17944bcd0"><path d="M 22.199219 42.144531 L 22.199219 153.652344 C 22.199219 156.136719 24.210938 158.152344 26.695312 158.152344 L 197.894531 158.152344 C 200.378906 158.152344 202.390625 156.136719 202.390625 153.652344 L 202.390625 42.144531 C 202.390625 40.949219 201.917969 39.804688 201.074219 38.964844 C 200.230469 38.121094 199.085938 37.644531 197.894531 37.644531 L 26.695312 37.644531 C 24.210938 37.644531 22.199219 39.660156 22.199219 42.144531 Z M 22.199219 42.144531 " clip-rule="nonzero"/></clipPath><clipPath id="48dd5b7e2c"><path d="M 27.59375 38.546875 L 196.996094 38.546875 C 199.480469 38.546875 201.492188 40.558594 201.492188 43.042969 L 201.492188 152.753906 C 201.492188 155.238281 199.480469 157.25 196.996094 157.25 L 27.59375 157.25 C 25.109375 157.25 23.097656 155.238281 23.097656 152.753906 L 23.097656 43.042969 C 23.097656 40.558594 25.109375 38.546875 27.59375 38.546875 Z M 27.59375 38.546875 " clip-rule="nonzero"/></clipPath><clipPath id="d0886afcfe"><path d="M 94 105 L 96 105 L 96 107 L 94 107 Z M 94 105 " clip-rule="nonzero"/></clipPath><clipPath id="8fb3ede126"><path d="M 22.199219 42.144531 L 22.199219 153.652344 C 22.199219 156.136719 24.210938 158.152344 26.695312 158.152344 L 197.894531 158.152344 C 200.378906 158.152344 202.390625 156.136719 202.390625 153.652344 L 202.390625 42.144531 C 202.390625 40.949219 201.917969 39.804688 201.074219 38.964844 C 200.230469 38.121094 199.085938 37.644531 197.894531 37.644531 L 26.695312 37.644531 C 24.210938 37.644531 22.199219 39.660156 22.199219 42.144531 Z M 22.199219 42.144531 " clip-rule="nonzero"/></clipPath><clipPath id="7234fc5dfd"><path d="M 27.59375 38.546875 L 196.996094 38.546875 C 199.480469 38.546875 201.492188 40.558594 201.492188 43.042969 L 201.492188 152.753906 C 201.492188 155.238281 199.480469 157.25 196.996094 157.25 L 27.59375 157.25 C 25.109375 157.25 23.097656 155.238281 23.097656 152.753906 L 23.097656 43.042969 C 23.097656 40.558594 25.109375 38.546875 27.59375 38.546875 Z M 27.59375 38.546875 " clip-rule="nonzero"/></clipPath><clipPath id="2ccd3715c0"><path d="M 110 104 L 112 104 L 112 107 L 110 107 Z M 110 104 " clip-rule="nonzero"/></clipPath><clipPath id="13bea9e63c"><path d="M 22.199219 42.144531 L 22.199219 153.652344 C 22.199219 156.136719 24.210938 158.152344 26.695312 158.152344 L 197.894531 158.152344 C 200.378906 158.152344 202.390625 156.136719 202.390625 153.652344 L 202.390625 42.144531 C 202.390625 40.949219 201.917969 39.804688 201.074219 38.964844 C 200.230469 38.121094 199.085938 37.644531 197.894531 37.644531 L 26.695312 37.644531 C 24.210938 37.644531 22.199219 39.660156 22.199219 42.144531 Z M 22.199219 42.144531 " clip-rule="nonzero"/></clipPath><clipPath id="31437acfbe"><path d="M 27.59375 38.546875 L 196.996094 38.546875 C 199.480469 38.546875 201.492188 40.558594 201.492188 43.042969 L 201.492188 152.753906 C 201.492188 155.238281 199.480469 157.25 196.996094 157.25 L 27.59375 157.25 C 25.109375 157.25 23.097656 155.238281 23.097656 152.753906 L 23.097656 43.042969 C 23.097656 40.558594 25.109375 38.546875 27.59375 38.546875 Z M 27.59375 38.546875 " clip-rule="nonzero"/></clipPath><clipPath id="c937d60dcb"><path d="M 107 107 L 109 107 L 109 109 L 107 109 Z M 107 107 " clip-rule="nonzero"/></clipPath><clipPath id="c6da14c582"><path d="M 22.199219 42.144531 L 22.199219 153.652344 C 22.199219 156.136719 24.210938 158.152344 26.695312 158.152344 L 197.894531 158.152344 C 200.378906 158.152344 202.390625 156.136719 202.390625 153.652344 L 202.390625 42.144531 C 202.390625 40.949219 201.917969 39.804688 201.074219 38.964844 C 200.230469 38.121094 199.085938 37.644531 197.894531 37.644531 L 26.695312 37.644531 C 24.210938 37.644531 22.199219 39.660156 22.199219 42.144531 Z M 22.199219 42.144531 " clip-rule="nonzero"/></clipPath><clipPath id="917af53833"><path d="M 27.59375 38.546875 L 196.996094 38.546875 C 199.480469 38.546875 201.492188 40.558594 201.492188 43.042969 L 201.492188 152.753906 C 201.492188 155.238281 199.480469 157.25 196.996094 157.25 L 27.59375 157.25 C 25.109375 157.25 23.097656 155.238281 23.097656 152.753906 L 23.097656 43.042969 C 23.097656 40.558594 25.109375 38.546875 27.59375 38.546875 Z M 27.59375 38.546875 " clip-rule="nonzero"/></clipPath><clipPath id="dd8e6d9835"><path d="M 109 108 L 111 108 L 111 110 L 109 110 Z M 109 108 " clip-rule="nonzero"/></clipPath><clipPath id="222f39a320"><path d="M 22.199219 42.144531 L 22.199219 153.652344 C 22.199219 156.136719 24.210938 158.152344 26.695312 158.152344 L 197.894531 158.152344 C 200.378906 158.152344 202.390625 156.136719 202.390625 153.652344 L 202.390625 42.144531 C 202.390625 40.949219 201.917969 39.804688 201.074219 38.964844 C 200.230469 38.121094 199.085938 37.644531 197.894531 37.644531 L 26.695312 37.644531 C 24.210938 37.644531 22.199219 39.660156 22.199219 42.144531 Z M 22.199219 42.144531 " clip-rule="nonzero"/></clipPath><clipPath id="53f99e1cbb"><path d="M 27.59375 38.546875 L 196.996094 38.546875 C 199.480469 38.546875 201.492188 40.558594 201.492188 43.042969 L 201.492188 152.753906 C 201.492188 155.238281 199.480469 157.25 196.996094 157.25 L 27.59375 157.25 C 25.109375 157.25 23.097656 155.238281 23.097656 152.753906 L 23.097656 43.042969 C 23.097656 40.558594 25.109375 38.546875 27.59375 38.546875 Z M 27.59375 38.546875 " clip-rule="nonzero"/></clipPath><clipPath id="9bfe47668b"><path d="M 121 115 L 124 115 L 124 118 L 121 118 Z M 121 115 " clip-rule="nonzero"/></clipPath><clipPath id="f7e419f74f"><path d="M 22.199219 42.144531 L 22.199219 153.652344 C 22.199219 156.136719 24.210938 158.152344 26.695312 158.152344 L 197.894531 158.152344 C 200.378906 158.152344 202.390625 156.136719 202.390625 153.652344 L 202.390625 42.144531 C 202.390625 40.949219 201.917969 39.804688 201.074219 38.964844 C 200.230469 38.121094 199.085938 37.644531 197.894531 37.644531 L 26.695312 37.644531 C 24.210938 37.644531 22.199219 39.660156 22.199219 42.144531 Z M 22.199219 42.144531 " clip-rule="nonzero"/></clipPath><clipPath id="fe4ed09316"><path d="M 27.59375 38.546875 L 196.996094 38.546875 C 199.480469 38.546875 201.492188 40.558594 201.492188 43.042969 L 201.492188 152.753906 C 201.492188 155.238281 199.480469 157.25 196.996094 157.25 L 27.59375 157.25 C 25.109375 157.25 23.097656 155.238281 23.097656 152.753906 L 23.097656 43.042969 C 23.097656 40.558594 25.109375 38.546875 27.59375 38.546875 Z M 27.59375 38.546875 " clip-rule="nonzero"/></clipPath><clipPath id="2dde0f9ad5"><path d="M 124 114 L 126 114 L 126 116 L 124 116 Z M 124 114 " clip-rule="nonzero"/></clipPath><clipPath id="adbcd9a4b9"><path d="M 22.199219 42.144531 L 22.199219 153.652344 C 22.199219 156.136719 24.210938 158.152344 26.695312 158.152344 L 197.894531 158.152344 C 200.378906 158.152344 202.390625 156.136719 202.390625 153.652344 L 202.390625 42.144531 C 202.390625 40.949219 201.917969 39.804688 201.074219 38.964844 C 200.230469 38.121094 199.085938 37.644531 197.894531 37.644531 L 26.695312 37.644531 C 24.210938 37.644531 22.199219 39.660156 22.199219 42.144531 Z M 22.199219 42.144531 " clip-rule="nonzero"/></clipPath><clipPath id="32df55e757"><path d="M 27.59375 38.546875 L 196.996094 38.546875 C 199.480469 38.546875 201.492188 40.558594 201.492188 43.042969 L 201.492188 152.753906 C 201.492188 155.238281 199.480469 157.25 196.996094 157.25 L 27.59375 157.25 C 25.109375 157.25 23.097656 155.238281 23.097656 152.753906 L 23.097656 43.042969 C 23.097656 40.558594 25.109375 38.546875 27.59375 38.546875 Z M 27.59375 38.546875 " clip-rule="nonzero"/></clipPath><clipPath id="9ce88cca22"><path d="M 135 109 L 138 109 L 138 111 L 135 111 Z M 135 109 " clip-rule="nonzero"/></clipPath><clipPath id="0ba628a381"><path d="M 22.199219 42.144531 L 22.199219 153.652344 C 22.199219 156.136719 24.210938 158.152344 26.695312 158.152344 L 197.894531 158.152344 C 200.378906 158.152344 202.390625 156.136719 202.390625 153.652344 L 202.390625 42.144531 C 202.390625 40.949219 201.917969 39.804688 201.074219 38.964844 C 200.230469 38.121094 199.085938 37.644531 197.894531 37.644531 L 26.695312 37.644531 C 24.210938 37.644531 22.199219 39.660156 22.199219 42.144531 Z M 22.199219 42.144531 " clip-rule="nonzero"/></clipPath><clipPath id="7aa504663c"><path d="M 27.59375 38.546875 L 196.996094 38.546875 C 199.480469 38.546875 201.492188 40.558594 201.492188 43.042969 L 201.492188 152.753906 C 201.492188 155.238281 199.480469 157.25 196.996094 157.25 L 27.59375 157.25 C 25.109375 157.25 23.097656 155.238281 23.097656 152.753906 L 23.097656 43.042969 C 23.097656 40.558594 25.109375 38.546875 27.59375 38.546875 Z M 27.59375 38.546875 " clip-rule="nonzero"/></clipPath><clipPath id="6c308e4e02"><path d="M 94 113 L 97 113 L 97 115 L 94 115 Z M 94 113 " clip-rule="nonzero"/></clipPath><clipPath id="f0941f2529"><path d="M 22.199219 42.144531 L 22.199219 153.652344 C 22.199219 156.136719 24.210938 158.152344 26.695312 158.152344 L 197.894531 158.152344 C 200.378906 158.152344 202.390625 156.136719 202.390625 153.652344 L 202.390625 42.144531 C 202.390625 40.949219 201.917969 39.804688 201.074219 38.964844 C 200.230469 38.121094 199.085938 37.644531 197.894531 37.644531 L 26.695312 37.644531 C 24.210938 37.644531 22.199219 39.660156 22.199219 42.144531 Z M 22.199219 42.144531 " clip-rule="nonzero"/></clipPath><clipPath id="c7427f7b2b"><path d="M 27.59375 38.546875 L 196.996094 38.546875 C 199.480469 38.546875 201.492188 40.558594 201.492188 43.042969 L 201.492188 152.753906 C 201.492188 155.238281 199.480469 157.25 196.996094 157.25 L 27.59375 157.25 C 25.109375 157.25 23.097656 155.238281 23.097656 152.753906 L 23.097656 43.042969 C 23.097656 40.558594 25.109375 38.546875 27.59375 38.546875 Z M 27.59375 38.546875 " clip-rule="nonzero"/></clipPath><clipPath id="51bdd884a3"><path d="M 22.199219 37.644531 L 202.101562 37.644531 L 202.101562 158.324219 L 22.199219 158.324219 Z M 22.199219 37.644531 " clip-rule="nonzero"/></clipPath><clipPath id="ba3e2228de"><path d="M 22.199219 42.144531 L 22.199219 153.652344 C 22.199219 156.136719 24.210938 158.152344 26.695312 158.152344 L 197.894531 158.152344 C 200.378906 158.152344 202.390625 156.136719 202.390625 153.652344 L 202.390625 42.144531 C 202.390625 40.949219 201.917969 39.804688 201.074219 38.964844 C 200.230469 38.121094 199.085938 37.644531 197.894531 37.644531 L 26.695312 37.644531 C 24.210938 37.644531 22.199219 39.660156 22.199219 42.144531 Z M 22.199219 42.144531 " clip-rule="nonzero"/></clipPath><clipPath id="dcc16819e8"><path d="M 22.199219 42.144531 L 22.199219 153.644531 C 22.199219 156.128906 24.210938 158.144531 26.695312 158.144531 L 197.886719 158.144531 C 200.367188 158.144531 202.382812 156.128906 202.382812 153.644531 L 202.382812 42.144531 C 202.382812 40.949219 201.910156 39.804688 201.066406 38.960938 C 200.222656 38.121094 199.078125 37.644531 197.886719 37.644531 L 26.695312 37.644531 C 24.210938 37.644531 22.199219 39.660156 22.199219 42.144531 Z M 22.199219 42.144531 " clip-rule="nonzero"/></clipPath><clipPath id="cd60aebd95"><path d="M 80.453125 165.910156 L 144.328125 165.910156 L 144.328125 222.402344 L 80.453125 222.402344 Z M 80.453125 165.910156 " clip-rule="nonzero"/></clipPath><clipPath id="099154c4df"><path d="M 110.207031 221.035156 L 80.9375 169.8125 C 80.476562 169.007812 80.480469 168.015625 80.949219 167.210938 C 81.414062 166.402344 82.273438 165.910156 83.207031 165.910156 L 141.675781 165.910156 C 142.605469 165.910156 143.464844 166.402344 143.933594 167.210938 C 144.398438 168.015625 144.402344 169.007812 143.941406 169.8125 L 114.671875 221.035156 C 114.214844 221.835938 113.363281 222.328125 112.441406 222.328125 C 111.519531 222.328125 110.667969 221.835938 110.207031 221.035156 Z M 110.207031 221.035156 " clip-rule="nonzero"/></clipPath><clipPath id="05832218d3"><path d="M 80 165.910156 L 145 165.910156 L 145 222.832031 L 80 222.832031 Z M 80 165.910156 " clip-rule="nonzero"/></clipPath><clipPath id="6e00ea0022"><path d="M 110.207031 221.035156 L 80.9375 169.8125 C 80.476562 169.007812 80.480469 168.015625 80.949219 167.210938 C 81.414062 166.402344 82.273438 165.910156 83.207031 165.910156 L 141.675781 165.910156 C 142.605469 165.910156 143.464844 166.402344 143.933594 167.210938 C 144.398438 168.015625 144.402344 169.007812 143.941406 169.8125 L 114.671875 221.035156 C 114.214844 221.835938 113.363281 222.328125 112.441406 222.328125 C 111.519531 222.328125 110.667969 221.835938 110.207031 221.035156 Z M 110.207031 221.035156 " clip-rule="nonzero"/></clipPath></defs><g clip-path="url(#b54e2062ec)"><g clip-path="url(#f91c0f7e75)"><g clip-path="url(#41e4512b7a)"><path fill="#00a651" d="M 22.246094 37.648438 L 202.011719 37.648438 L 202.011719 158.324219 L 22.246094 158.324219 Z M 22.246094 37.648438 " fill-opacity="1" fill-rule="nonzero"/></g></g></g><g clip-path="url(#368d95b470)"><g clip-path="url(#d9e64fa007)"><g clip-path="url(#f83b99681d)"><path fill="#ffcb05" d="M 183.023438 97.953125 L 112.214844 143.273438 L 41.726562 97.953125 L 112.214844 52.695312 Z M 183.023438 97.953125 " fill-opacity="1" fill-rule="nonzero"/></g></g></g><g clip-path="url(#7d065a4ae4)"><g clip-path="url(#922d53a86a)"><g clip-path="url(#2f3c570ceb)"><path fill="#2e3192" d="M 112.375 128.105469 C 128.609375 128.105469 141.769531 114.703125 141.769531 98.171875 C 141.769531 81.636719 128.609375 68.238281 112.375 68.238281 C 96.152344 68.238281 82.992188 81.636719 82.992188 98.171875 C 82.980469 114.703125 96.140625 128.105469 112.375 128.105469 Z M 112.375 128.105469 " fill-opacity="1" fill-rule="evenodd"/></g></g></g><g clip-path="url(#f96de3205d)"><g clip-path="url(#34bfb3c89d)"><g clip-path="url(#7424e3d75d)"><g clip-path="url(#7ecdb51a64)"><path fill="#ffffff" d="M 142.167969 110.183594 C 127.128906 96.742188 104.082031 89.1875 79.0625 94.152344 C 79.023438 92.515625 79.035156 90.871094 79.0625 89.214844 C 105.328125 84.332031 129.558594 92.402344 145.5 106.765625 C 144.359375 107.878906 143.25 109.019531 142.167969 110.183594 Z M 142.167969 110.183594 " fill-opacity="1" fill-rule="nonzero"/></g></g></g></g><g clip-path="url(#d1b412efae)"><g clip-path="url(#95a8635e50)"><g clip-path="url(#bc718564c6)"><path fill="#079b49" d="M 90.4375 90.367188 C 90.488281 91.230469 89.992188 91.785156 89.234375 91.832031 C 88.457031 91.878906 87.964844 91.316406 87.925781 90.566406 C 87.878906 89.777344 88.351562 89.15625 89.121094 89.109375 C 89.917969 89.0625 90.390625 89.640625 90.4375 90.367188 Z M 88.542969 90.507812 C 88.570312 91.023438 88.835938 91.375 89.234375 91.347656 C 89.632812 91.328125 89.839844 90.925781 89.8125 90.414062 C 89.785156 89.9375 89.539062 89.546875 89.128906 89.574219 C 88.722656 89.605469 88.511719 89.996094 88.542969 90.507812 Z M 88.542969 90.507812 " fill-opacity="1" fill-rule="nonzero"/></g></g></g><g clip-path="url(#6a3f8ec9cf)"><g clip-path="url(#fff1eca303)"><g clip-path="url(#6021abe9a3)"><path fill="#079b49" d="M 91.636719 89.070312 C 91.824219 89.035156 92.109375 89.015625 92.421875 89.003906 C 92.8125 89.003906 93.085938 89.050781 93.277344 89.203125 C 93.4375 89.328125 93.523438 89.507812 93.523438 89.757812 C 93.523438 90.089844 93.296875 90.328125 93.066406 90.414062 L 93.066406 90.421875 C 93.246094 90.5 93.351562 90.671875 93.429688 90.910156 C 93.511719 91.203125 93.597656 91.546875 93.65625 91.652344 L 93.046875 91.660156 C 93 91.585938 92.945312 91.375 92.859375 91.050781 C 92.78125 90.726562 92.667969 90.632812 92.433594 90.632812 L 92.25 90.632812 L 92.261719 91.667969 L 91.671875 91.679688 Z M 92.242188 90.203125 L 92.480469 90.203125 C 92.773438 90.203125 92.953125 90.050781 92.945312 89.824219 C 92.945312 89.585938 92.773438 89.460938 92.507812 89.460938 C 92.367188 89.460938 92.28125 89.480469 92.242188 89.480469 Z M 92.242188 90.203125 " fill-opacity="1" fill-rule="nonzero"/></g></g></g><g clip-path="url(#a07a992c0d)"><g clip-path="url(#9cff919539)"><g clip-path="url(#7adbde950f)"><path fill="#079b49" d="M 94.8125 89.0625 C 95.03125 89.035156 95.316406 89.023438 95.621094 89.035156 C 96.121094 89.050781 96.4375 89.148438 96.691406 89.347656 C 96.957031 89.558594 97.117188 89.890625 97.109375 90.355469 C 97.089844 90.859375 96.902344 91.203125 96.644531 91.414062 C 96.359375 91.632812 95.933594 91.738281 95.421875 91.71875 C 95.109375 91.707031 94.898438 91.679688 94.746094 91.660156 Z M 95.34375 91.230469 C 95.390625 91.242188 95.476562 91.25 95.554688 91.25 C 96.09375 91.269531 96.453125 90.984375 96.472656 90.355469 C 96.492188 89.804688 96.179688 89.507812 95.667969 89.5 C 95.535156 89.5 95.449219 89.507812 95.402344 89.519531 Z M 95.34375 91.230469 " fill-opacity="1" fill-rule="nonzero"/></g></g></g><g clip-path="url(#cd33da7bd2)"><g clip-path="url(#42f506f865)"><g clip-path="url(#4444ebf7d8)"><path fill="#079b49" d="M 99.84375 90.785156 L 98.875 90.71875 L 98.835938 91.347656 L 99.917969 91.421875 L 99.890625 91.90625 L 98.21875 91.792969 L 98.398438 89.167969 L 100.023438 89.28125 L 99.992188 89.765625 L 98.96875 89.699219 L 98.929688 90.242188 L 99.898438 90.308594 Z M 99.84375 90.785156 " fill-opacity="1" fill-rule="nonzero"/></g></g></g><g clip-path="url(#bfe933ffcd)"><g clip-path="url(#3963dcffa8)"><g clip-path="url(#5364661954)"><path fill="#079b49" d="M 103.363281 91.242188 C 103.382812 90.925781 103.417969 90.546875 103.457031 90.164062 L 103.449219 90.164062 C 103.332031 90.488281 103.183594 90.851562 103.050781 91.144531 L 102.621094 92.136719 L 102.15625 92.089844 L 101.988281 91.042969 C 101.9375 90.726562 101.882812 90.347656 101.863281 89.996094 L 101.855469 89.996094 C 101.796875 90.347656 101.738281 90.746094 101.691406 91.070312 L 101.539062 92.058594 L 100.992188 92.003906 L 101.445312 89.40625 L 102.234375 89.488281 L 102.394531 90.394531 C 102.441406 90.707031 102.488281 91.042969 102.519531 91.355469 L 102.527344 91.355469 C 102.632812 91.0625 102.765625 90.726562 102.878906 90.441406 L 103.25 89.605469 L 104.015625 89.691406 L 103.875 92.328125 L 103.296875 92.261719 Z M 103.363281 91.242188 " fill-opacity="1" fill-rule="nonzero"/></g></g></g><g clip-path="url(#c20089d388)"><g clip-path="url(#927643f421)"><g clip-path="url(#54fda061fd)"><path fill="#079b49" d="M 108.816406 92.144531 L 108.011719 92.003906 L 107.917969 92.527344 L 108.816406 92.6875 L 108.742188 93.097656 L 107.347656 92.851562 L 107.738281 90.652344 L 109.082031 90.898438 L 109.007812 91.308594 L 108.152344 91.15625 L 108.070312 91.613281 L 108.875 91.753906 Z M 108.816406 92.144531 " fill-opacity="1" fill-rule="nonzero"/></g></g></g><g clip-path="url(#0eee68dfa8)"><g clip-path="url(#92f542f4c3)"><g clip-path="url(#3d8f393a29)"><path fill="#079b49" d="M 111.996094 91.109375 C 112.1875 91.117188 112.441406 91.15625 112.792969 91.242188 C 113.152344 91.328125 113.390625 91.449219 113.523438 91.632812 C 113.65625 91.804688 113.714844 92.039062 113.65625 92.289062 C 113.601562 92.535156 113.46875 92.734375 113.277344 92.839844 C 113.039062 92.984375 112.726562 92.992188 112.386719 92.917969 C 112.308594 92.898438 112.242188 92.878906 112.1875 92.859375 L 111.96875 93.773438 L 111.398438 93.640625 Z M 112.300781 92.414062 C 112.347656 92.429688 112.40625 92.449219 112.488281 92.46875 C 112.792969 92.546875 113.019531 92.429688 113.085938 92.164062 C 113.144531 91.925781 113.011719 91.746094 112.726562 91.679688 C 112.613281 91.652344 112.527344 91.640625 112.480469 91.640625 Z M 112.300781 92.414062 " fill-opacity="1" fill-rule="nonzero"/></g></g></g><g clip-path="url(#861ad31097)"><g clip-path="url(#2f377bc67a)"><g clip-path="url(#0a5a768a51)"><path fill="#079b49" d="M 115.03125 91.851562 C 115.222656 91.871094 115.507812 91.925781 115.8125 92.011719 C 116.191406 92.117188 116.4375 92.25 116.578125 92.441406 C 116.691406 92.601562 116.730469 92.800781 116.664062 93.039062 C 116.578125 93.363281 116.285156 93.527344 116.046875 93.542969 L 116.046875 93.554688 C 116.199219 93.679688 116.257812 93.867188 116.257812 94.125 C 116.257812 94.429688 116.246094 94.792969 116.265625 94.894531 L 115.679688 94.734375 C 115.660156 94.648438 115.648438 94.429688 115.667969 94.097656 C 115.6875 93.761719 115.601562 93.640625 115.375 93.574219 L 115.203125 93.527344 L 114.929688 94.523438 L 114.359375 94.363281 Z M 115.296875 93.105469 L 115.527344 93.171875 C 115.8125 93.25 116.019531 93.15625 116.085938 92.9375 C 116.152344 92.699219 116.027344 92.546875 115.761719 92.460938 C 115.621094 92.421875 115.546875 92.414062 115.496094 92.402344 Z M 115.296875 93.105469 " fill-opacity="1" fill-rule="nonzero"/></g></g></g><g clip-path="url(#b909fc329a)"><g clip-path="url(#62854fa74a)"><g clip-path="url(#5ea438c464)"><path fill="#079b49" d="M 120.003906 94.667969 C 119.738281 95.488281 119.085938 95.828125 118.355469 95.589844 C 117.613281 95.351562 117.355469 94.648438 117.585938 93.933594 C 117.832031 93.183594 118.488281 92.773438 119.226562 93.011719 C 119.996094 93.257812 120.230469 93.972656 120.003906 94.667969 Z M 118.191406 94.117188 C 118.03125 94.609375 118.15625 95.03125 118.535156 95.152344 C 118.914062 95.277344 119.253906 94.980469 119.40625 94.496094 C 119.550781 94.050781 119.464844 93.59375 119.074219 93.460938 C 118.6875 93.335938 118.34375 93.628906 118.191406 94.117188 Z M 118.191406 94.117188 " fill-opacity="1" fill-rule="nonzero"/></g></g></g><g clip-path="url(#2e96e1ece8)"><g clip-path="url(#b726f69900)"><g clip-path="url(#845e129047)"><path fill="#079b49" d="M 122.773438 96.988281 C 122.585938 96.980469 122.226562 96.941406 121.902344 96.820312 C 121.457031 96.648438 121.171875 96.410156 121.03125 96.105469 C 120.886719 95.808594 120.878906 95.4375 121.019531 95.078125 C 121.332031 94.257812 122.101562 94.011719 122.90625 94.316406 C 123.222656 94.4375 123.449219 94.589844 123.542969 94.695312 L 123.257812 95.097656 C 123.144531 94.980469 122.992188 94.878906 122.726562 94.773438 C 122.261719 94.601562 121.816406 94.726562 121.617188 95.265625 C 121.429688 95.773438 121.636719 96.199219 122.09375 96.371094 C 122.214844 96.417969 122.328125 96.4375 122.375 96.4375 L 122.566406 95.925781 L 122.1875 95.78125 L 122.347656 95.34375 L 123.269531 95.6875 Z M 122.773438 96.988281 " fill-opacity="1" fill-rule="nonzero"/></g></g></g><g clip-path="url(#ccb2f9b007)"><g clip-path="url(#78b2e68657)"><g clip-path="url(#be68c77785)"><path fill="#079b49" d="M 124.871094 95.164062 C 125.0625 95.210938 125.328125 95.296875 125.621094 95.417969 C 125.980469 95.570312 126.210938 95.734375 126.324219 95.941406 C 126.417969 96.125 126.429688 96.324219 126.332031 96.542969 C 126.199219 96.855469 125.898438 96.972656 125.648438 96.960938 L 125.640625 96.972656 C 125.78125 97.113281 125.800781 97.3125 125.773438 97.5625 C 125.734375 97.867188 125.679688 98.21875 125.679688 98.332031 L 125.117188 98.09375 C 125.109375 98.007812 125.136719 97.789062 125.183594 97.457031 C 125.25 97.125 125.175781 97 124.957031 96.90625 L 124.796875 96.839844 L 124.386719 97.789062 L 123.847656 97.5625 Z M 124.976562 96.4375 L 125.195312 96.535156 C 125.46875 96.648438 125.6875 96.582031 125.773438 96.371094 C 125.867188 96.152344 125.765625 95.972656 125.515625 95.859375 C 125.382812 95.800781 125.308594 95.78125 125.261719 95.773438 Z M 124.976562 96.4375 " fill-opacity="1" fill-rule="nonzero"/></g></g></g><g clip-path="url(#b2254e6a27)"><g clip-path="url(#94ec5bfa4c)"><g clip-path="url(#9cd47a3bd1)"><path fill="#079b49" d="M 128.574219 98.457031 L 127.699219 98.039062 L 127.433594 98.597656 L 128.410156 99.066406 L 128.191406 99.511719 L 126.675781 98.789062 L 127.804688 96.410156 L 129.273438 97.105469 L 129.066406 97.542969 L 128.136719 97.105469 L 127.910156 97.609375 L 128.78125 98.027344 Z M 128.574219 98.457031 " fill-opacity="1" fill-rule="nonzero"/></g></g></g><g clip-path="url(#9f6eadfb0d)"><g clip-path="url(#bcf273004f)"><g clip-path="url(#a628d51f5b)"><path fill="#079b49" d="M 129.539062 99.503906 C 129.644531 99.644531 129.824219 99.835938 130.050781 99.960938 C 130.289062 100.082031 130.480469 100.054688 130.554688 99.902344 C 130.632812 99.761719 130.566406 99.617188 130.335938 99.371094 C 130.023438 99.027344 129.882812 98.683594 130.0625 98.339844 C 130.269531 97.941406 130.765625 97.808594 131.316406 98.105469 C 131.582031 98.238281 131.742188 98.398438 131.847656 98.53125 L 131.503906 98.894531 C 131.4375 98.796875 131.304688 98.644531 131.078125 98.523438 C 130.847656 98.398438 130.6875 98.445312 130.621094 98.570312 C 130.546875 98.722656 130.640625 98.855469 130.878906 99.121094 C 131.210938 99.492188 131.296875 99.808594 131.117188 100.140625 C 130.90625 100.53125 130.441406 100.710938 129.796875 100.367188 C 129.53125 100.226562 129.304688 100.027344 129.207031 99.882812 Z M 129.539062 99.503906 " fill-opacity="1" fill-rule="nonzero"/></g></g></g><g clip-path="url(#d0ff8f046e)"><g clip-path="url(#a8f9e9901c)"><g clip-path="url(#864e012e62)"><path fill="#079b49" d="M 132.09375 100.875 C 132.1875 101.027344 132.359375 101.214844 132.585938 101.347656 C 132.824219 101.484375 133.003906 101.464844 133.089844 101.3125 C 133.175781 101.167969 133.109375 101.027344 132.890625 100.769531 C 132.585938 100.417969 132.460938 100.0625 132.652344 99.730469 C 132.878906 99.339844 133.375 99.226562 133.90625 99.539062 C 134.160156 99.691406 134.320312 99.855469 134.417969 99.988281 L 134.066406 100.339844 C 134 100.246094 133.875 100.082031 133.648438 99.960938 C 133.421875 99.835938 133.257812 99.875 133.191406 99.988281 C 133.109375 100.132812 133.203125 100.273438 133.429688 100.550781 C 133.742188 100.929688 133.820312 101.253906 133.628906 101.566406 C 133.410156 101.949219 132.925781 102.109375 132.300781 101.75 C 132.046875 101.597656 131.828125 101.386719 131.730469 101.234375 Z M 132.09375 100.875 " fill-opacity="1" fill-rule="nonzero"/></g></g></g><g clip-path="url(#5520a29983)"><g clip-path="url(#8834768453)"><g clip-path="url(#2bc8643162)"><path fill="#079b49" d="M 136.996094 103.003906 C 136.53125 103.738281 135.8125 103.898438 135.167969 103.480469 C 134.511719 103.0625 134.4375 102.320312 134.84375 101.683594 C 135.269531 101.015625 136.011719 100.789062 136.664062 101.207031 C 137.339844 101.636719 137.386719 102.386719 136.996094 103.003906 Z M 135.375 102.007812 C 135.101562 102.445312 135.109375 102.882812 135.441406 103.089844 C 135.785156 103.308594 136.183594 103.109375 136.457031 102.671875 C 136.714844 102.273438 136.730469 101.804688 136.390625 101.585938 C 136.050781 101.378906 135.652344 101.578125 135.375 102.007812 Z M 135.375 102.007812 " fill-opacity="1" fill-rule="nonzero"/></g></g></g><g clip-path="url(#37b9da6a39)"><g clip-path="url(#e11c8a9ef4)"><g clip-path="url(#bca72d7161)"><path fill="#ffffff" d="M 118.886719 116.347656 L 119.625 116.347656 L 119.019531 116.796875 L 119.253906 117.53125 L 118.648438 117.0625 L 118.050781 117.5 L 118.277344 116.789062 L 117.699219 116.347656 L 118.421875 116.347656 L 118.65625 115.664062 Z M 118.886719 116.347656 " fill-opacity="1" fill-rule="evenodd"/></g></g></g><g clip-path="url(#8f73ef307e)"><g clip-path="url(#7f6f87b85c)"><g clip-path="url(#d68416f0b0)"><path fill="#ffffff" d="M 124.957031 120.859375 L 125.480469 120.859375 L 125.050781 121.164062 L 125.222656 121.667969 L 124.796875 121.355469 L 124.378906 121.660156 L 124.539062 121.15625 L 124.140625 120.859375 L 124.636719 120.859375 L 124.796875 120.386719 Z M 124.957031 120.859375 " fill-opacity="1" fill-rule="evenodd"/></g></g></g><g clip-path="url(#f79e2ac565)"><g clip-path="url(#8b28b5796f)"><g clip-path="url(#7ff8f023db)"><path fill="#ffffff" d="M 118.164062 90.707031 L 118.855469 90.234375 L 119.511719 90.707031 L 119.265625 89.9375 L 119.910156 89.453125 L 119.121094 89.453125 L 118.855469 88.679688 L 118.570312 89.453125 L 117.757812 89.453125 L 118.4375 89.9375 " fill-opacity="1" fill-rule="nonzero"/></g></g></g><g clip-path="url(#e858756471)"><g clip-path="url(#8d3cdf9b05)"><g clip-path="url(#5fa51a6d2e)"><path fill="#ffffff" d="M 130.972656 110.417969 L 131.78125 109.847656 L 132.546875 110.417969 L 132.261719 109.507812 L 133.023438 108.933594 L 132.09375 108.933594 L 131.78125 108.03125 L 131.449219 108.933594 L 130.5 108.933594 L 131.296875 109.507812 " fill-opacity="1" fill-rule="nonzero"/></g></g></g><g clip-path="url(#62940c0b19)"><g clip-path="url(#5d8af92cdf)"><g clip-path="url(#df49c8e5cf)"><path fill="#ffffff" d="M 118.183594 99.996094 L 118.675781 99.644531 L 119.140625 99.996094 L 118.96875 99.4375 L 119.433594 99.09375 L 118.867188 99.09375 L 118.675781 98.542969 L 118.46875 99.09375 L 117.890625 99.09375 L 118.371094 99.4375 " fill-opacity="1" fill-rule="nonzero"/></g></g></g><g clip-path="url(#90d5de738e)"><g clip-path="url(#cd730127a4)"><g clip-path="url(#105559a1e4)"><path fill="#ffffff" d="M 90.289062 96 L 90.980469 95.515625 L 91.636719 96 L 91.386719 95.21875 L 92.042969 94.734375 L 91.246094 94.734375 L 90.980469 93.964844 L 90.695312 94.734375 L 89.878906 94.734375 L 90.5625 95.21875 " fill-opacity="1" fill-rule="nonzero"/></g></g></g><g clip-path="url(#878362cd68)"><g clip-path="url(#4ae5ddbaa1)"><g clip-path="url(#de8fbd9eaf)"><path fill="#ffffff" d="M 100.761719 102.777344 L 101.457031 102.300781 L 102.101562 102.777344 L 101.863281 102.007812 L 102.507812 101.519531 L 101.722656 101.519531 L 101.457031 100.75 L 101.171875 101.519531 L 100.355469 101.519531 L 101.039062 102.007812 " fill-opacity="1" fill-rule="nonzero"/></g></g></g><g clip-path="url(#b463cce50f)"><g clip-path="url(#8839a67a48)"><g clip-path="url(#dec6124752)"><path fill="#ffffff" d="M 113.410156 107.488281 L 114.101562 107.003906 L 114.757812 107.488281 L 114.511719 106.707031 L 115.15625 106.222656 L 114.367188 106.222656 L 114.101562 105.460938 L 113.816406 106.222656 L 113.003906 106.222656 L 113.683594 106.707031 " fill-opacity="1" fill-rule="nonzero"/></g></g></g><g clip-path="url(#0977676263)"><g clip-path="url(#8abc3f49ca)"><g clip-path="url(#84580e2b71)"><path fill="#ffffff" d="M 111.644531 114.339844 L 112.339844 113.867188 L 112.984375 114.339844 L 112.738281 113.570312 L 113.390625 113.085938 L 112.59375 113.085938 L 112.339844 112.3125 L 112.054688 113.085938 L 111.238281 113.085938 L 111.921875 113.570312 " fill-opacity="1" fill-rule="nonzero"/></g></g></g><g clip-path="url(#74bb6638f9)"><g clip-path="url(#da7674ac49)"><g clip-path="url(#2c7dbaf381)"><path fill="#ffffff" d="M 119.71875 121.117188 L 120.414062 120.632812 L 121.066406 121.117188 L 120.820312 120.335938 L 121.464844 119.851562 L 120.679688 119.851562 L 120.414062 119.082031 L 120.128906 119.851562 L 119.3125 119.851562 L 119.996094 120.335938 " fill-opacity="1" fill-rule="nonzero"/></g></g></g><g clip-path="url(#41d961bea9)"><g clip-path="url(#63fd7df3d9)"><g clip-path="url(#0de3379158)"><path fill="#ffffff" d="M 111.789062 124.03125 L 112.042969 123.847656 L 112.289062 124.03125 L 112.195312 123.734375 L 112.441406 123.554688 L 112.148438 123.554688 L 112.042969 123.269531 L 111.941406 123.554688 L 111.636719 123.554688 L 111.890625 123.734375 " fill-opacity="1" fill-rule="nonzero"/></g></g></g><g clip-path="url(#635749cd2b)"><g clip-path="url(#10cf22e04f)"><g clip-path="url(#421c342c39)"><path fill="#ffffff" d="M 92.0625 109.019531 L 92.753906 108.535156 L 93.398438 109.019531 L 93.152344 108.238281 L 93.808594 107.765625 L 93.019531 107.765625 L 92.753906 106.992188 L 92.46875 107.765625 L 91.652344 107.765625 L 92.335938 108.238281 " fill-opacity="1" fill-rule="nonzero"/></g></g></g><g clip-path="url(#62d71a289f)"><g clip-path="url(#b0c5dbf7ac)"><g clip-path="url(#1e222ba630)"><path fill="#ffffff" d="M 97.632812 112.742188 L 98.210938 112.332031 L 98.761719 112.742188 L 98.550781 112.085938 L 99.101562 111.6875 L 98.4375 111.6875 L 98.210938 111.039062 L 97.972656 111.6875 L 97.289062 111.6875 L 97.867188 112.085938 " fill-opacity="1" fill-rule="nonzero"/></g></g></g><g clip-path="url(#c8a186e534)"><g clip-path="url(#34048d2065)"><g clip-path="url(#b418160582)"><path fill="#ffffff" d="M 124.949219 118.480469 L 125.527344 118.070312 L 126.078125 118.480469 L 125.867188 117.824219 L 126.417969 117.425781 L 125.753906 117.425781 L 125.527344 116.777344 L 125.289062 117.425781 L 124.605469 117.425781 L 125.175781 117.824219 " fill-opacity="1" fill-rule="nonzero"/></g></g></g><g clip-path="url(#b4c80e628e)"><g clip-path="url(#b5b4786ab1)"><g clip-path="url(#6c23cbc049)"><path fill="#ffffff" d="M 128.15625 117.023438 L 128.734375 116.617188 L 129.273438 117.023438 L 129.066406 116.367188 L 129.617188 115.96875 L 128.953125 115.96875 L 128.734375 115.320312 L 128.496094 115.96875 L 127.8125 115.96875 L 128.382812 116.367188 " fill-opacity="1" fill-rule="nonzero"/></g></g></g><g clip-path="url(#85098277e3)"><g clip-path="url(#8d9da70e4d)"><g clip-path="url(#e9ea645397)"><path fill="#ffffff" d="M 130.449219 115.417969 L 131.03125 115.015625 L 131.582031 115.417969 L 131.371094 114.769531 L 131.914062 114.359375 L 131.25 114.359375 L 131.03125 113.722656 L 130.792969 114.359375 L 130.109375 114.359375 L 130.679688 114.769531 " fill-opacity="1" fill-rule="nonzero"/></g></g></g><g clip-path="url(#fbcaaf5fc9)"><g clip-path="url(#636f850a2d)"><g clip-path="url(#2dc039deee)"><path fill="#ffffff" d="M 132.460938 112.828125 L 133.042969 112.417969 L 133.589844 112.828125 L 133.382812 112.171875 L 133.933594 111.769531 L 133.257812 111.769531 L 133.042969 111.125 L 132.804688 111.769531 L 132.121094 111.769531 L 132.691406 112.171875 " fill-opacity="1" fill-rule="nonzero"/></g></g></g><g clip-path="url(#12cfcf7b8b)"><g clip-path="url(#4a4c166f29)"><g clip-path="url(#51dc265b32)"><path fill="#ffffff" d="M 97.652344 118.121094 L 98.332031 117.644531 L 98.988281 118.121094 L 98.742188 117.347656 L 99.394531 116.863281 L 98.597656 116.863281 L 98.332031 116.09375 L 98.050781 116.863281 L 97.242188 116.863281 L 97.925781 117.347656 " fill-opacity="1" fill-rule="nonzero"/></g></g></g><g clip-path="url(#b2913af3d7)"><g clip-path="url(#b17944bcd0)"><g clip-path="url(#48dd5b7e2c)"><path fill="#ffffff" d="M 88.332031 110.582031 L 88.96875 110.132812 L 89.574219 110.582031 L 89.347656 109.859375 L 89.945312 109.410156 L 89.214844 109.410156 L 88.96875 108.695312 L 88.703125 109.410156 L 87.953125 109.410156 L 88.578125 109.859375 " fill-opacity="1" fill-rule="nonzero"/></g></g></g><g clip-path="url(#d0886afcfe)"><g clip-path="url(#8fb3ede126)"><g clip-path="url(#7234fc5dfd)"><path fill="#ffffff" d="M 94.546875 106.898438 L 94.984375 106.59375 L 95.390625 106.898438 L 95.230469 106.414062 L 95.640625 106.109375 L 95.144531 106.109375 L 94.984375 105.632812 L 94.804688 106.109375 L 94.292969 106.109375 L 94.71875 106.414062 " fill-opacity="1" fill-rule="nonzero"/></g></g></g><g clip-path="url(#2ccd3715c0)"><g clip-path="url(#13bea9e63c)"><g clip-path="url(#31437acfbe)"><path fill="#ffffff" d="M 110.761719 106.011719 L 111.199219 105.707031 L 111.609375 106.011719 L 111.457031 105.527344 L 111.863281 105.222656 L 111.359375 105.222656 L 111.199219 104.738281 L 111.019531 105.222656 L 110.507812 105.222656 L 110.933594 105.527344 " fill-opacity="1" fill-rule="nonzero"/></g></g></g><g clip-path="url(#c937d60dcb)"><g clip-path="url(#c6da14c582)"><g clip-path="url(#917af53833)"><path fill="#ffffff" d="M 107.773438 108.382812 L 108.203125 108.078125 L 108.609375 108.382812 L 108.457031 107.898438 L 108.867188 107.59375 L 108.371094 107.59375 L 108.203125 107.109375 L 108.03125 107.59375 L 107.519531 107.59375 L 107.945312 107.898438 " fill-opacity="1" fill-rule="nonzero"/></g></g></g><g clip-path="url(#dd8e6d9835)"><g clip-path="url(#222f39a320)"><g clip-path="url(#53f99e1cbb)"><path fill="#ffffff" d="M 109.613281 109.972656 L 110.042969 109.667969 L 110.449219 109.972656 L 110.296875 109.476562 L 110.707031 109.171875 L 110.210938 109.171875 L 110.042969 108.695312 L 109.863281 109.171875 L 109.359375 109.171875 L 109.785156 109.476562 " fill-opacity="1" fill-rule="nonzero"/></g></g></g><g clip-path="url(#9bfe47668b)"><g clip-path="url(#f7e419f74f)"><g clip-path="url(#fe4ed09316)"><path fill="#ffffff" d="M 122.121094 117.1875 L 122.558594 116.882812 L 122.964844 117.1875 L 122.8125 116.703125 L 123.222656 116.398438 L 122.71875 116.398438 L 122.558594 115.910156 L 122.375 116.398438 L 121.863281 116.398438 L 122.292969 116.703125 " fill-opacity="1" fill-rule="nonzero"/></g></g></g><g clip-path="url(#2dde0f9ad5)"><g clip-path="url(#adbcd9a4b9)"><g clip-path="url(#32df55e757)"><path fill="#ffffff" d="M 124.710938 115.65625 L 125.136719 115.351562 L 125.554688 115.65625 L 125.394531 115.167969 L 125.800781 114.863281 L 125.308594 114.863281 L 125.136719 114.378906 L 124.96875 114.863281 L 124.453125 114.863281 L 124.882812 115.167969 " fill-opacity="1" fill-rule="nonzero"/></g></g></g><g clip-path="url(#9ce88cca22)"><g clip-path="url(#0ba628a381)"><g clip-path="url(#7aa504663c)"><path fill="#ffffff" d="M 136.105469 110.675781 L 136.542969 110.371094 L 136.949219 110.675781 L 136.796875 110.183594 L 137.207031 109.878906 L 136.703125 109.878906 L 136.542969 109.402344 L 136.363281 109.878906 L 135.851562 109.878906 L 136.277344 110.183594 " fill-opacity="1" fill-rule="nonzero"/></g></g></g><g clip-path="url(#6c308e4e02)"><g clip-path="url(#f0941f2529)"><g clip-path="url(#c7427f7b2b)"><path fill="#ffffff" d="M 94.976562 114.53125 L 95.410156 114.226562 L 95.820312 114.53125 L 95.667969 114.046875 L 96.074219 113.742188 L 95.574219 113.742188 L 95.410156 113.257812 L 95.230469 113.742188 L 94.71875 113.742188 L 95.144531 114.046875 " fill-opacity="1" fill-rule="nonzero"/></g></g></g><g clip-path="url(#51bdd884a3)"><g clip-path="url(#ba3e2228de)"><g clip-path="url(#dcc16819e8)"><path stroke-linecap="butt" transform="matrix(0.7496, 0, 0, 0.7496, 22.197535, 37.645604)" fill="none" stroke-linejoin="miter" d="M 0.00224566 6.001772 L 0.00224566 154.747782 C 0.00224566 158.06205 2.685969 160.750984 6.000236 160.750984 L 234.377251 160.750984 C 237.686307 160.750984 240.375242 158.06205 240.375242 154.747782 L 240.375242 6.001772 C 240.375242 4.407171 239.744697 2.880315 238.619097 1.754714 C 237.493496 0.634325 235.96664 -0.00143063 234.377251 -0.00143063 L 6.000236 -0.00143063 C 2.685969 -0.00143063 0.00224566 2.687504 0.00224566 6.001772 Z M 0.00224566 6.001772 " stroke="#000000" stroke-width="6" stroke-opacity="1" stroke-miterlimit="4"/></g></g></g><g clip-path="url(#cd60aebd95)"><g clip-path="url(#099154c4df)"><path fill="#00a651" d="M 146.171875 224.941406 L 78.609375 224.941406 L 78.609375 165.910156 L 146.171875 165.910156 Z M 146.171875 224.941406 " fill-opacity="1" fill-rule="nonzero"/></g></g><g clip-path="url(#05832218d3)"><g clip-path="url(#6e00ea0022)"><path stroke-linecap="butt" transform="matrix(-0.7496, 0, 0, -0.7496, 146.171987, 224.939996)" fill="none" stroke-linejoin="miter" d="M 47.978868 5.209231 L 87.025738 73.542557 C 87.640649 74.616046 87.635438 75.939669 87.010104 77.013158 C 86.389982 78.091858 85.243537 78.748458 83.998081 78.748458 L 5.998141 78.748458 C 4.757896 78.748458 3.611451 78.091858 2.986118 77.013158 C 2.365995 75.939669 2.360784 74.616046 2.975696 73.542557 L 42.022566 5.209231 C 42.632266 4.140953 43.768288 3.484353 44.998111 3.484353 C 46.227934 3.484353 47.363956 4.140953 47.978868 5.209231 Z M 47.978868 5.209231 " stroke="#000000" stroke-width="6" stroke-opacity="1" stroke-miterlimit="4"/></g></g></svg>