<svg xmlns="http://www.w3.org/2000/svg" xmlns:xlink="http://www.w3.org/1999/xlink" width="300" zoomAndPan="magnify" viewBox="0 0 224.87999 225" height="300" preserveAspectRatio="xMidYMid meet" version="1.0"><defs><clipPath id="56b63acd64"><path d="M 23.238281 46.347656 L 184 46.347656 L 184 127 L 23.238281 127 Z M 23.238281 46.347656 " clip-rule="nonzero"/></clipPath><clipPath id="4f3574ce9a"><path d="M 22.488281 50.097656 L 22.488281 152.417969 C 22.488281 154.898438 24.5 156.914062 26.984375 156.914062 L 197.894531 156.914062 C 200.378906 156.914062 202.390625 154.898438 202.390625 152.417969 L 202.390625 50.097656 C 202.390625 48.902344 201.917969 47.757812 201.074219 46.914062 C 200.230469 46.070312 199.085938 45.597656 197.894531 45.597656 L 26.984375 45.597656 C 24.5 45.597656 22.488281 47.613281 22.488281 50.097656 Z M 22.488281 50.097656 " clip-rule="nonzero"/></clipPath><clipPath id="6f870e555e"><path d="M 27.886719 46.496094 L 196.996094 46.496094 C 198.1875 46.496094 199.332031 46.972656 200.175781 47.816406 C 201.019531 48.660156 201.492188 49.800781 201.492188 50.996094 L 201.492188 151.515625 C 201.492188 154 199.480469 156.015625 196.996094 156.015625 L 27.886719 156.015625 C 25.402344 156.015625 23.386719 154 23.386719 151.515625 L 23.386719 50.996094 C 23.386719 48.511719 25.402344 46.496094 27.886719 46.496094 Z M 27.886719 46.496094 " clip-rule="nonzero"/></clipPath><clipPath id="f945f22c4a"><path d="M 23.238281 46.347656 L 113 46.347656 L 113 91 L 23.238281 91 Z M 23.238281 46.347656 " clip-rule="nonzero"/></clipPath><clipPath id="9e61ecd180"><path d="M 22.488281 50.097656 L 22.488281 152.417969 C 22.488281 154.898438 24.5 156.914062 26.984375 156.914062 L 197.894531 156.914062 C 200.378906 156.914062 202.390625 154.898438 202.390625 152.417969 L 202.390625 50.097656 C 202.390625 48.902344 201.917969 47.757812 201.074219 46.914062 C 200.230469 46.070312 199.085938 45.597656 197.894531 45.597656 L 26.984375 45.597656 C 24.5 45.597656 22.488281 47.613281 22.488281 50.097656 Z M 22.488281 50.097656 " clip-rule="nonzero"/></clipPath><clipPath id="32d7f2a563"><path d="M 27.886719 46.496094 L 196.996094 46.496094 C 198.1875 46.496094 199.332031 46.972656 200.175781 47.816406 C 201.019531 48.660156 201.492188 49.800781 201.492188 50.996094 L 201.492188 151.515625 C 201.492188 154 199.480469 156.015625 196.996094 156.015625 L 27.886719 156.015625 C 25.402344 156.015625 23.386719 154 23.386719 151.515625 L 23.386719 50.996094 C 23.386719 48.511719 25.402344 46.496094 27.886719 46.496094 Z M 27.886719 46.496094 " clip-rule="nonzero"/></clipPath><clipPath id="cb8813b124"><path d="M 23.238281 46.347656 L 201.640625 46.347656 L 201.640625 156.539062 L 23.238281 156.539062 Z M 23.238281 46.347656 " clip-rule="nonzero"/></clipPath><clipPath id="be37b65339"><path d="M 22.488281 50.097656 L 22.488281 152.417969 C 22.488281 154.898438 24.5 156.914062 26.984375 156.914062 L 197.894531 156.914062 C 200.378906 156.914062 202.390625 154.898438 202.390625 152.417969 L 202.390625 50.097656 C 202.390625 48.902344 201.917969 47.757812 201.074219 46.914062 C 200.230469 46.070312 199.085938 45.597656 197.894531 45.597656 L 26.984375 45.597656 C 24.5 45.597656 22.488281 47.613281 22.488281 50.097656 Z M 22.488281 50.097656 " clip-rule="nonzero"/></clipPath><clipPath id="819c413f88"><path d="M 27.886719 46.496094 L 196.996094 46.496094 C 198.1875 46.496094 199.332031 46.972656 200.175781 47.816406 C 201.019531 48.660156 201.492188 49.800781 201.492188 50.996094 L 201.492188 151.515625 C 201.492188 154 199.480469 156.015625 196.996094 156.015625 L 27.886719 156.015625 C 25.402344 156.015625 23.386719 154 23.386719 151.515625 L 23.386719 50.996094 C 23.386719 48.511719 25.402344 46.496094 27.886719 46.496094 Z M 27.886719 46.496094 " clip-rule="nonzero"/></clipPath><clipPath id="4b0fb221b0"><path d="M 22.488281 45.597656 L 202.390625 45.597656 L 202.390625 157 L 22.488281 157 Z M 22.488281 45.597656 " clip-rule="nonzero"/></clipPath><clipPath id="097ce7f610"><path d="M 22.488281 50.097656 L 22.488281 152.417969 C 22.488281 154.898438 24.5 156.914062 26.984375 156.914062 L 197.894531 156.914062 C 200.378906 156.914062 202.390625 154.898438 202.390625 152.417969 L 202.390625 50.097656 C 202.390625 48.902344 201.917969 47.757812 201.074219 46.914062 C 200.230469 46.070312 199.085938 45.597656 197.894531 45.597656 L 26.984375 45.597656 C 24.5 45.597656 22.488281 47.613281 22.488281 50.097656 Z M 22.488281 50.097656 " clip-rule="nonzero"/></clipPath><clipPath id="c2fd598aea"><path d="M 22.488281 50.097656 L 22.488281 152.417969 C 22.488281 154.898438 24.5 156.914062 26.984375 156.914062 L 197.894531 156.914062 C 200.378906 156.914062 202.390625 154.898438 202.390625 152.417969 L 202.390625 50.097656 C 202.390625 48.902344 201.917969 47.757812 201.074219 46.914062 C 200.230469 46.070312 199.085938 45.597656 197.894531 45.597656 L 26.984375 45.597656 C 24.5 45.597656 22.488281 47.613281 22.488281 50.097656 Z M 22.488281 50.097656 " clip-rule="nonzero"/></clipPath><clipPath id="ac734a0aad"><path d="M 80.453125 165.910156 L 144.328125 165.910156 L 144.328125 222.402344 L 80.453125 222.402344 Z M 80.453125 165.910156 " clip-rule="nonzero"/></clipPath><clipPath id="7ffe0a66eb"><path d="M 110.207031 221.035156 L 80.9375 169.8125 C 80.476562 169.007812 80.480469 168.015625 80.949219 167.210938 C 81.414062 166.402344 82.273438 165.910156 83.207031 165.910156 L 141.675781 165.910156 C 142.605469 165.910156 143.464844 166.402344 143.933594 167.210938 C 144.398438 168.015625 144.402344 169.007812 143.941406 169.8125 L 114.671875 221.035156 C 114.214844 221.835938 113.363281 222.328125 112.441406 222.328125 C 111.519531 222.328125 110.667969 221.835938 110.207031 221.035156 Z M 110.207031 221.035156 " clip-rule="nonzero"/></clipPath><clipPath id="6d7550aed4"><path d="M 80 165.910156 L 145 165.910156 L 145 222.832031 L 80 222.832031 Z M 80 165.910156 " clip-rule="nonzero"/></clipPath><clipPath id="ab9572ad05"><path d="M 110.207031 221.035156 L 80.9375 169.8125 C 80.476562 169.007812 80.480469 168.015625 80.949219 167.210938 C 81.414062 166.402344 82.273438 165.910156 83.207031 165.910156 L 141.675781 165.910156 C 142.605469 165.910156 143.464844 166.402344 143.933594 167.210938 C 144.398438 168.015625 144.402344 169.007812 143.941406 169.8125 L 114.671875 221.035156 C 114.214844 221.835938 113.363281 222.328125 112.441406 222.328125 C 111.519531 222.328125 110.667969 221.835938 110.207031 221.035156 Z M 110.207031 221.035156 " clip-rule="nonzero"/></clipPath></defs><g clip-path="url(#56b63acd64)"><g clip-path="url(#4f3574ce9a)"><g clip-path="url(#6f870e555e)"><path fill="#ffffff" d="M 80.167969 116.148438 L 71.8125 117.066406 L 72.957031 125.445312 L 67.347656 119.132812 L 61.398438 125.445312 L 62.542969 117.066406 L 54.1875 116.148438 L 61.398438 111.898438 L 56.59375 104.777344 L 64.601562 107.765625 L 67.347656 99.613281 L 69.984375 107.765625 L 77.765625 104.777344 L 72.957031 111.898438 Z M 154.328125 126.367188 L 154.671875 122.460938 L 150.78125 122.117188 L 154.328125 120.050781 L 151.925781 116.492188 L 155.816406 118.214844 L 156.960938 114.308594 L 158.21875 118.214844 L 162.109375 116.492188 L 159.707031 120.050781 L 163.253906 122.117188 L 159.132812 122.460938 L 159.707031 126.367188 L 156.960938 123.609375 Z M 165.085938 93.070312 L 166 90.660156 L 166.917969 93.070312 L 169.550781 93.070312 L 167.71875 94.792969 L 168.058594 97.546875 L 166 96.054688 L 163.597656 97.546875 L 164.511719 94.792969 L 162.339844 93.070312 Z M 139.335938 81.011719 L 137.277344 84.34375 L 140.824219 86.410156 L 136.703125 86.753906 L 137.277344 90.886719 L 134.527344 87.902344 L 131.898438 90.886719 L 132.238281 86.753906 L 128.347656 86.410156 L 131.898438 84.34375 L 129.492188 81.011719 L 133.382812 82.277344 L 134.527344 78.601562 L 135.789062 82.277344 Z M 156.960938 54.03125 L 158.21875 57.9375 L 162.109375 56.671875 L 159.707031 60 L 163.253906 62.070312 L 159.132812 62.414062 L 159.707031 66.316406 L 156.960938 63.332031 L 154.328125 66.316406 L 154.671875 62.414062 L 150.78125 62.070312 L 154.328125 60 L 151.925781 56.671875 L 155.816406 57.9375 Z M 62.886719 45.648438 L 62.886719 63.675781 L 22.488281 63.675781 L 22.488281 60.574219 L 42.171875 60.574219 L 22.488281 50.699219 L 22.488281 48.863281 L 45.492188 60.574219 L 52.359375 60.574219 L 22.488281 45.648438 L 32.332031 45.648438 L 59.566406 59.425781 L 59.566406 45.648438 Z M 71.8125 45.648438 L 74.789062 45.648438 L 74.789062 59.425781 L 102.027344 45.648438 L 105.230469 45.648438 L 75.359375 60.574219 L 82.226562 60.574219 L 112.210938 45.648438 L 112.210938 50.699219 L 92.414062 60.574219 L 112.210938 60.574219 L 112.210938 63.675781 L 71.8125 63.675781 Z M 71.8125 90.660156 L 71.8125 72.628906 L 112.210938 72.628906 L 112.210938 75.617188 L 92.414062 75.617188 L 112.210938 85.492188 L 112.210938 87.328125 L 88.867188 75.617188 L 82.226562 75.617188 L 112.210938 90.660156 L 102.027344 90.660156 L 74.789062 76.878906 L 74.789062 90.660156 Z M 62.886719 90.660156 L 59.566406 90.660156 L 59.566406 76.878906 L 32.332031 90.660156 L 29.011719 90.660156 L 58.996094 75.617188 L 52.359375 75.617188 L 22.488281 90.660156 L 22.488281 85.492188 L 42.171875 75.617188 L 22.488281 75.617188 L 22.488281 72.628906 L 62.886719 72.628906 Z M 182.136719 75.042969 L 179.734375 78.371094 L 183.28125 80.4375 L 179.160156 80.667969 L 179.734375 84.917969 L 176.988281 81.933594 L 174.011719 84.917969 L 174.699219 80.667969 L 170.808594 80.4375 L 174.011719 78.371094 L 171.953125 75.042969 L 175.84375 76.535156 L 176.988281 72.628906 L 178.246094 76.535156 L 182.136719 75.042969 " fill-opacity="1" fill-rule="evenodd"/></g></g></g><g clip-path="url(#f945f22c4a)"><g clip-path="url(#9e61ecd180)"><g clip-path="url(#32d7f2a563)"><path fill="#ed1c24" d="M 22.488281 90.660156 L 52.359375 75.617188 L 58.996094 75.617188 L 29.011719 90.660156 Z M 112.210938 90.660156 L 82.226562 75.617188 L 88.867188 75.617188 L 112.210938 87.328125 Z M 112.210938 45.648438 L 82.226562 60.574219 L 75.359375 60.574219 L 105.230469 45.648438 Z M 22.488281 45.648438 L 52.359375 60.574219 L 45.492188 60.574219 L 22.488281 48.863281 Z M 22.488281 63.675781 L 62.886719 63.675781 L 62.886719 45.648438 L 71.8125 45.648438 L 71.8125 63.675781 L 112.210938 63.675781 L 112.210938 72.628906 L 71.8125 72.628906 L 71.8125 90.660156 L 62.886719 90.660156 L 62.886719 72.628906 L 22.488281 72.628906 L 22.488281 63.675781 " fill-opacity="1" fill-rule="evenodd"/></g></g></g><g clip-path="url(#cb8813b124)"><g clip-path="url(#be37b65339)"><g clip-path="url(#819c413f88)"><path fill="#2b2d7e" d="M 80.167969 116.148438 L 72.957031 111.898438 L 77.765625 104.777344 L 69.984375 107.765625 L 67.347656 99.613281 L 64.601562 107.765625 L 56.59375 104.777344 L 61.398438 111.898438 L 54.1875 116.148438 L 62.542969 117.066406 L 61.398438 125.445312 L 67.347656 119.132812 L 72.957031 125.445312 L 71.8125 117.066406 Z M 154.328125 126.367188 L 156.960938 123.609375 L 159.707031 126.367188 L 159.132812 122.460938 L 163.253906 122.117188 L 159.707031 120.050781 L 162.109375 116.492188 L 158.21875 118.214844 L 156.960938 114.308594 L 155.816406 118.214844 L 151.925781 116.492188 L 154.328125 120.050781 L 150.78125 122.117188 L 154.671875 122.460938 Z M 156.960938 54.03125 L 155.816406 57.9375 L 151.925781 56.671875 L 154.328125 60 L 150.78125 62.070312 L 154.671875 62.414062 L 154.328125 66.316406 L 156.960938 63.332031 L 159.707031 66.316406 L 159.132812 62.414062 L 163.253906 62.070312 L 159.707031 60 L 162.109375 56.671875 L 158.21875 57.9375 Z M 139.335938 81.011719 L 135.789062 82.277344 L 134.527344 78.601562 L 133.382812 82.277344 L 129.492188 81.011719 L 131.898438 84.34375 L 128.347656 86.410156 L 132.238281 86.753906 L 131.898438 90.886719 L 134.527344 87.902344 L 137.277344 90.886719 L 136.703125 86.753906 L 140.824219 86.410156 L 137.277344 84.34375 Z M 165.085938 93.070312 L 162.339844 93.070312 L 164.511719 94.792969 L 163.597656 97.546875 L 166 96.054688 L 168.058594 97.546875 L 167.71875 94.792969 L 169.550781 93.070312 L 166.917969 93.070312 L 166 90.660156 Z M 102.027344 45.648438 L 74.789062 59.425781 L 74.789062 45.648438 Z M 59.566406 45.648438 L 59.566406 59.425781 L 32.332031 45.648438 Z M 22.488281 50.699219 L 42.171875 60.574219 L 22.488281 60.574219 Z M 22.488281 75.617188 L 42.171875 75.617188 L 22.488281 85.492188 Z M 22.488281 90.660156 L 32.332031 90.660156 L 59.566406 76.878906 L 59.566406 90.660156 L 74.789062 90.660156 L 74.789062 76.878906 L 102.027344 90.660156 L 112.210938 90.660156 L 112.210938 85.492188 L 92.414062 75.617188 L 112.210938 75.617188 L 112.210938 60.574219 L 92.414062 60.574219 L 112.210938 50.699219 L 112.210938 45.648438 L 202.394531 45.648438 L 202.394531 157.25 L 22.488281 157.25 Z M 182.136719 75.042969 L 178.246094 76.535156 L 176.988281 72.628906 L 175.84375 76.535156 L 171.953125 75.042969 L 174.011719 78.371094 L 170.808594 80.4375 L 174.699219 80.667969 L 174.011719 84.917969 L 176.988281 81.933594 L 179.734375 84.917969 L 179.160156 80.667969 L 183.28125 80.4375 L 179.734375 78.371094 L 182.136719 75.042969 " fill-opacity="1" fill-rule="evenodd"/></g></g></g><g clip-path="url(#4b0fb221b0)"><g clip-path="url(#097ce7f610)"><g clip-path="url(#c2fd598aea)"><path stroke-linecap="butt" transform="matrix(0.7496, 0, 0, 0.7496, 22.487998, 45.598211)" fill="none" stroke-linejoin="miter" d="M 0.000377784 6.002462 L 0.000377784 142.502357 C 0.000377784 145.811414 2.684101 148.500348 5.998369 148.500348 L 234.000198 148.500348 C 237.314466 148.500348 239.998189 145.811414 239.998189 142.502357 L 239.998189 6.002462 C 239.998189 4.407861 239.367644 2.881005 238.242044 1.755405 C 237.116443 0.629805 235.589587 -0.000740158 234.000198 -0.000740158 L 5.998369 -0.000740158 C 2.684101 -0.000740158 0.000377784 2.688194 0.000377784 6.002462 Z M 0.000377784 6.002462 " stroke="#000000" stroke-width="6" stroke-opacity="1" stroke-miterlimit="4"/></g></g></g><g clip-path="url(#ac734a0aad)"><g clip-path="url(#7ffe0a66eb)"><path fill="#2b2d7e" d="M 146.171875 224.941406 L 78.609375 224.941406 L 78.609375 165.910156 L 146.171875 165.910156 Z M 146.171875 224.941406 " fill-opacity="1" fill-rule="nonzero"/></g></g><g clip-path="url(#6d7550aed4)"><g clip-path="url(#ab9572ad05)"><path stroke-linecap="butt" transform="matrix(-0.7496, 0, 0, -0.7496, 146.171987, 224.939996)" fill="none" stroke-linejoin="miter" d="M 47.978868 5.209231 L 87.025738 73.542557 C 87.640649 74.616046 87.635438 75.939669 87.010104 77.013158 C 86.389982 78.091858 85.243537 78.748458 83.998081 78.748458 L 5.998141 78.748458 C 4.757896 78.748458 3.611451 78.091858 2.986118 77.013158 C 2.365995 75.939669 2.360784 74.616046 2.975696 73.542557 L 42.022566 5.209231 C 42.632266 4.140953 43.768288 3.484353 44.998111 3.484353 C 46.227934 3.484353 47.363956 4.140953 47.978868 5.209231 Z M 47.978868 5.209231 " stroke="#000000" stroke-width="6" stroke-opacity="1" stroke-miterlimit="4"/></g></g></svg>