<svg xmlns="http://www.w3.org/2000/svg" xmlns:xlink="http://www.w3.org/1999/xlink" width="300" zoomAndPan="magnify" viewBox="0 0 224.87999 225" height="300" preserveAspectRatio="xMidYMid meet" version="1.0"><defs><clipPath id="9593a13206"><path d="M 23.238281 48.035156 L 82.5 48.035156 L 82.5 157.476562 L 23.238281 157.476562 Z M 23.238281 48.035156 " clip-rule="nonzero"/></clipPath><clipPath id="c404c0ff96"><path d="M 22.488281 51.78125 L 22.488281 153.652344 C 22.488281 156.136719 24.5 158.152344 26.984375 158.152344 L 197.894531 158.152344 C 200.378906 158.152344 202.390625 156.136719 202.390625 153.652344 L 202.390625 51.78125 C 202.390625 49.296875 200.378906 47.285156 197.894531 47.285156 L 26.984375 47.285156 C 24.5 47.285156 22.488281 49.296875 22.488281 51.78125 Z M 22.488281 51.78125 " clip-rule="nonzero"/></clipPath><clipPath id="9a1af33a9a"><path d="M 27.886719 48.183594 L 196.996094 48.183594 C 199.480469 48.183594 201.492188 50.199219 201.492188 52.683594 L 201.492188 152.753906 C 201.492188 155.238281 199.480469 157.25 196.996094 157.25 L 27.886719 157.25 C 25.402344 157.25 23.386719 155.238281 23.386719 152.753906 L 23.386719 52.683594 C 23.386719 50.199219 25.402344 48.183594 27.886719 48.183594 Z M 27.886719 48.183594 " clip-rule="nonzero"/></clipPath><clipPath id="088960bc4f"><path d="M 142.367188 48.035156 L 201.640625 48.035156 L 201.640625 157.476562 L 142.367188 157.476562 Z M 142.367188 48.035156 " clip-rule="nonzero"/></clipPath><clipPath id="48f0e30916"><path d="M 22.488281 51.78125 L 22.488281 153.652344 C 22.488281 156.136719 24.5 158.152344 26.984375 158.152344 L 197.894531 158.152344 C 200.378906 158.152344 202.390625 156.136719 202.390625 153.652344 L 202.390625 51.78125 C 202.390625 49.296875 200.378906 47.285156 197.894531 47.285156 L 26.984375 47.285156 C 24.5 47.285156 22.488281 49.296875 22.488281 51.78125 Z M 22.488281 51.78125 " clip-rule="nonzero"/></clipPath><clipPath id="e198fec931"><path d="M 27.886719 48.183594 L 196.996094 48.183594 C 199.480469 48.183594 201.492188 50.199219 201.492188 52.683594 L 201.492188 152.753906 C 201.492188 155.238281 199.480469 157.25 196.996094 157.25 L 27.886719 157.25 C 25.402344 157.25 23.386719 155.238281 23.386719 152.753906 L 23.386719 52.683594 C 23.386719 50.199219 25.402344 48.183594 27.886719 48.183594 Z M 27.886719 48.183594 " clip-rule="nonzero"/></clipPath><clipPath id="58ea52ea32"><path d="M 82.355469 48.035156 L 142.511719 48.035156 L 142.511719 157.476562 L 82.355469 157.476562 Z M 82.355469 48.035156 " clip-rule="nonzero"/></clipPath><clipPath id="61d9b10251"><path d="M 22.488281 51.78125 L 22.488281 153.652344 C 22.488281 156.136719 24.5 158.152344 26.984375 158.152344 L 197.894531 158.152344 C 200.378906 158.152344 202.390625 156.136719 202.390625 153.652344 L 202.390625 51.78125 C 202.390625 49.296875 200.378906 47.285156 197.894531 47.285156 L 26.984375 47.285156 C 24.5 47.285156 22.488281 49.296875 22.488281 51.78125 Z M 22.488281 51.78125 " clip-rule="nonzero"/></clipPath><clipPath id="831e1e90c6"><path d="M 27.886719 48.183594 L 196.996094 48.183594 C 199.480469 48.183594 201.492188 50.199219 201.492188 52.683594 L 201.492188 152.753906 C 201.492188 155.238281 199.480469 157.25 196.996094 157.25 L 27.886719 157.25 C 25.402344 157.25 23.386719 155.238281 23.386719 152.753906 L 23.386719 52.683594 C 23.386719 50.199219 25.402344 48.183594 27.886719 48.183594 Z M 27.886719 48.183594 " clip-rule="nonzero"/></clipPath><clipPath id="e6c63cf348"><path d="M 22.488281 47.285156 L 202.390625 47.285156 L 202.390625 158.21875 L 22.488281 158.21875 Z M 22.488281 47.285156 " clip-rule="nonzero"/></clipPath><clipPath id="3e8f884cfb"><path d="M 22.488281 51.78125 L 22.488281 153.652344 C 22.488281 156.136719 24.5 158.152344 26.984375 158.152344 L 197.894531 158.152344 C 200.378906 158.152344 202.390625 156.136719 202.390625 153.652344 L 202.390625 51.78125 C 202.390625 49.296875 200.378906 47.285156 197.894531 47.285156 L 26.984375 47.285156 C 24.5 47.285156 22.488281 49.296875 22.488281 51.78125 Z M 22.488281 51.78125 " clip-rule="nonzero"/></clipPath><clipPath id="077e1fafba"><path d="M 22.488281 51.78125 L 22.488281 153.644531 C 22.488281 156.128906 24.5 158.144531 26.984375 158.144531 L 197.894531 158.144531 C 200.378906 158.144531 202.390625 156.128906 202.390625 153.644531 L 202.390625 51.78125 C 202.390625 49.296875 200.378906 47.285156 197.894531 47.285156 L 26.984375 47.285156 C 24.5 47.285156 22.488281 49.296875 22.488281 51.78125 Z M 22.488281 51.78125 " clip-rule="nonzero"/></clipPath><clipPath id="9628db60ee"><path d="M 80.453125 165.910156 L 144.328125 165.910156 L 144.328125 222.402344 L 80.453125 222.402344 Z M 80.453125 165.910156 " clip-rule="nonzero"/></clipPath><clipPath id="1501e3710f"><path d="M 110.207031 221.035156 L 80.9375 169.8125 C 80.476562 169.007812 80.480469 168.015625 80.949219 167.210938 C 81.414062 166.402344 82.273438 165.910156 83.207031 165.910156 L 141.675781 165.910156 C 142.605469 165.910156 143.464844 166.402344 143.933594 167.210938 C 144.398438 168.015625 144.402344 169.007812 143.941406 169.8125 L 114.671875 221.035156 C 114.214844 221.835938 113.363281 222.328125 112.441406 222.328125 C 111.519531 222.328125 110.667969 221.835938 110.207031 221.035156 Z M 110.207031 221.035156 " clip-rule="nonzero"/></clipPath><clipPath id="59704b1bb1"><path d="M 80 165.910156 L 145 165.910156 L 145 222.832031 L 80 222.832031 Z M 80 165.910156 " clip-rule="nonzero"/></clipPath><clipPath id="bfcdecfa8f"><path d="M 110.207031 221.035156 L 80.9375 169.8125 C 80.476562 169.007812 80.480469 168.015625 80.949219 167.210938 C 81.414062 166.402344 82.273438 165.910156 83.207031 165.910156 L 141.675781 165.910156 C 142.605469 165.910156 143.464844 166.402344 143.933594 167.210938 C 144.398438 168.015625 144.402344 169.007812 143.941406 169.8125 L 114.671875 221.035156 C 114.214844 221.835938 113.363281 222.328125 112.441406 222.328125 C 111.519531 222.328125 110.667969 221.835938 110.207031 221.035156 Z M 110.207031 221.035156 " clip-rule="nonzero"/></clipPath></defs><g clip-path="url(#9593a13206)"><g clip-path="url(#c404c0ff96)"><g clip-path="url(#9a1af33a9a)"><path fill="#070908" d="M 22.488281 47.304688 L 22.488281 158.210938 L 82.453125 158.210938 L 82.453125 47.304688 L 22.488281 47.304688 " fill-opacity="1" fill-rule="nonzero"/></g></g></g><g clip-path="url(#088960bc4f)"><g clip-path="url(#48f0e30916)"><g clip-path="url(#e198fec931)"><path fill="#ee1b24" d="M 142.433594 47.304688 L 142.433594 158.210938 L 202.398438 158.210938 L 202.398438 47.304688 L 142.433594 47.304688 " fill-opacity="1" fill-rule="nonzero"/></g></g></g><g clip-path="url(#58ea52ea32)"><g clip-path="url(#61d9b10251)"><g clip-path="url(#831e1e90c6)"><path fill="#ffde16" d="M 82.453125 47.304688 L 82.453125 158.210938 L 142.433594 158.210938 L 142.433594 47.304688 L 82.453125 47.304688 " fill-opacity="1" fill-rule="nonzero"/></g></g></g><g clip-path="url(#e6c63cf348)"><g clip-path="url(#3e8f884cfb)"><g clip-path="url(#077e1fafba)"><path stroke-linecap="butt" transform="matrix(0.7496, 0, 0, 0.7496, 22.487998, 47.284811)" fill="none" stroke-linejoin="miter" d="M 0.000377784 5.998452 L 0.000377784 141.888647 C 0.000377784 145.202914 2.684101 147.891849 5.998369 147.891849 L 234.000198 147.891849 C 237.314466 147.891849 239.998189 145.202914 239.998189 141.888647 L 239.998189 5.998452 C 239.998189 2.684184 237.314466 0.000460676 234.000198 0.000460676 L 5.998369 0.000460676 C 2.684101 0.000460676 0.000377784 2.684184 0.000377784 5.998452 Z M 0.000377784 5.998452 " stroke="#000000" stroke-width="6" stroke-opacity="1" stroke-miterlimit="4"/></g></g></g><g clip-path="url(#9628db60ee)"><g clip-path="url(#1501e3710f)"><path fill="#000000" d="M 146.171875 224.941406 L 78.609375 224.941406 L 78.609375 165.910156 L 146.171875 165.910156 Z M 146.171875 224.941406 " fill-opacity="1" fill-rule="nonzero"/></g></g><g clip-path="url(#59704b1bb1)"><g clip-path="url(#bfcdecfa8f)"><path stroke-linecap="butt" transform="matrix(-0.7496, 0, 0, -0.7496, 146.171987, 224.939996)" fill="none" stroke-linejoin="miter" d="M 47.978868 5.209231 L 87.025738 73.542557 C 87.640649 74.616046 87.635438 75.939669 87.010104 77.013158 C 86.389982 78.091858 85.243537 78.748458 83.998081 78.748458 L 5.998141 78.748458 C 4.757896 78.748458 3.611451 78.091858 2.986118 77.013158 C 2.365995 75.939669 2.360784 74.616046 2.975696 73.542557 L 42.022566 5.209231 C 42.632266 4.140953 43.768288 3.484353 44.998111 3.484353 C 46.227934 3.484353 47.363956 4.140953 47.978868 5.209231 Z M 47.978868 5.209231 " stroke="#000000" stroke-width="6" stroke-opacity="1" stroke-miterlimit="4"/></g></g></svg>